<svg width="24" height="24" viewBox="0 0 24 24" fill="none" xmlns="http://www.w3.org/2000/svg">
<path fill-rule="evenodd" clip-rule="evenodd" d="M14 4C14 2.34315 15.3431 1 17 1C18.6568 1 20 2.34315 20 4C20 5.65685 18.6568 7 17 7C15.3431 7 14 5.65685 14 4ZM17 3C16.4477 3 16 3.44772 16 4C16 4.55228 16.4477 5 17 5C17.5522 5 18 4.55228 18 4C18 3.44772 17.5522 3 17 3Z" fill="#777EFF"/>
<path d="M22.7071 7.70711L20.4133 10.0009C19.8222 10.5921 19.3127 11.1016 18.8506 11.4593C18.3568 11.8417 17.8087 12.1392 17.1306 12.1687C17.0435 12.1725 16.9564 12.1725 16.8693 12.1687C16.1913 12.1392 15.6431 11.8417 15.1493 11.4593C14.6872 11.1016 14.1778 10.5921 13.5866 10.0009L13.5428 9.95711C12.8954 9.30971 12.4757 8.89265 12.1263 8.62213C11.7973 8.36742 11.6425 8.33369 11.5435 8.32938C11.5145 8.32811 11.4854 8.32811 11.4564 8.32938C11.3574 8.33369 11.2026 8.36742 10.8736 8.62213C10.5242 8.89265 10.1045 9.3097 9.45706 9.9571L7.20706 12.2071L5.79285 10.7929L8.08664 8.4991C8.67775 7.90792 9.18719 7.39843 9.64927 7.04069C10.1431 6.65833 10.6913 6.36083 11.3693 6.33127C11.4564 6.32748 11.5435 6.32748 11.6306 6.33127C12.3087 6.36083 12.8568 6.65833 13.3506 7.04069C13.8127 7.39842 14.3221 7.90789 14.9132 8.49904L14.9571 8.54289C15.6045 9.19029 16.0242 9.60735 16.3736 9.87787C16.7026 10.1326 16.8574 10.1663 16.9564 10.1706C16.9854 10.1719 17.0145 10.1719 17.0435 10.1706C17.1425 10.1663 17.2973 10.1326 17.6263 9.87787C17.9757 9.60735 18.3954 9.19029 19.0428 8.54289L21.2928 6.29289L22.7071 7.70711Z" fill="#777EFF"/>
<path d="M11.5546 13.8596C11.6866 13.7275 11.882 13.6814 12.0591 13.7405C13.098 14.0868 13.9132 14.902 14.2595 15.9408C14.3185 16.118 14.2724 16.3133 14.1404 16.4454L10.7928 19.7929L12.2071 21.2071L15.5546 17.8596C16.2223 17.1919 16.4555 16.2042 16.1568 15.3084C15.6115 13.6723 14.3276 12.3885 12.6916 11.8431C11.7957 11.5445 10.8081 11.7777 10.1404 12.4454L1.29285 21.2929L2.70706 22.7071L11.5546 13.8596Z" fill="#777EFF"/>
</svg>
