<svg width="20" height="20" viewBox="0 0 20 20" fill="none" xmlns="http://www.w3.org/2000/svg">
<path d="M10.3283 17.4326L15.3134 15.2962C16.0596 14.9763 16.6483 14.3731 16.9498 13.6193C17.8792 11.2959 17.8792 8.70408 16.9498 6.3807C16.6483 5.62686 16.0596 5.02368 15.3134 4.70385L10.3283 2.56738L9.67173 4.09929L14.6568 6.23576C14.9968 6.38146 15.265 6.65626 15.4023 6.99968C15.6824 7.69974 15.8606 8.42919 15.9371 9.16667H2.5V10.8333H15.9371C15.8606 11.5708 15.6824 12.3003 15.4023 13.0003C15.265 13.3438 14.9968 13.6185 14.6568 13.7642L9.67173 15.9007L10.3283 17.4326Z" fill="white"/>
</svg>
