<svg width="20" height="20" viewBox="0 0 20 20" fill="none" xmlns="http://www.w3.org/2000/svg">
<path d="M10.0002 15.8333H6.51933C5.51918 15.8333 4.64738 15.1526 4.40481 14.1824C3.71831 11.4364 3.71831 8.56362 4.40481 5.81764C4.64738 4.84735 5.51918 4.16667 6.51934 4.16667L10.0002 4.16667L10.0002 2.5H6.51934C4.75441 2.5 3.21596 3.70118 2.7879 5.41341C2.03506 8.4248 2.03506 11.5752 2.7879 14.5866C3.21596 16.2988 4.7544 17.5 6.51933 17.5H10.0002V15.8333Z" fill="#F566A9"/>
<path d="M16.2175 7.35486L13.747 5.94313L12.9201 7.3902L15.3907 8.80194C15.4784 8.85208 15.5419 8.93588 15.5664 9.03394C15.5774 9.07805 15.5877 9.1223 15.5972 9.16667H7.50023V10.8333H15.5972C15.5877 10.8777 15.5774 10.922 15.5664 10.9661C15.5419 11.0641 15.4784 11.1479 15.3907 11.1981L12.9201 12.6098L13.747 14.0569L16.2175 12.6451C16.6998 12.3696 17.0486 11.9091 17.1833 11.3703C17.4082 10.4706 17.4082 9.5294 17.1833 8.62972C17.0486 8.0909 16.6998 7.63042 16.2175 7.35486Z" fill="#F566A9"/>
</svg>
