<svg width="24" height="24" viewBox="0 0 24 24" fill="none" xmlns="http://www.w3.org/2000/svg">
<path d="M17.4961 1.13184L20.4608 2.82591C21.0394 3.15658 21.458 3.70915 21.6197 4.35574C21.8896 5.43535 21.8896 6.56481 21.6197 7.64442C21.458 8.291 21.0394 8.84358 20.4608 9.17424L17.4961 10.8683L16.5039 9.13184L19.4685 7.43776C19.5738 7.37758 19.65 7.27702 19.6794 7.15935C19.6926 7.10642 19.7049 7.05332 19.7163 7.00008H9C8.05444 7.00008 7.39534 7.00062 6.87945 7.03582C6.37254 7.07041 6.07734 7.13508 5.85195 7.22844C5.11687 7.53292 4.53284 8.11694 4.22836 8.85203C4.135 9.07741 4.07033 9.37262 4.03574 9.87953C4.00054 10.3954 4 11.0545 4 12.0001H2V11.9646C1.99999 11.0628 1.99999 10.3354 2.04038 9.74339C2.08191 9.13464 2.16948 8.59636 2.3806 8.08666C2.88807 6.86152 3.86144 5.88815 5.08658 5.38068C5.59628 5.16956 6.13456 5.08199 6.74331 5.04046C7.33531 5.00007 8.06273 5.00007 8.96449 5.00008L19.7163 5.00008C19.7049 4.94683 19.6926 4.89374 19.6794 4.84081C19.65 4.72314 19.5738 4.62258 19.4685 4.5624L16.5039 2.86832L17.4961 1.13184Z" fill="#777EFF"/>
<path d="M6.50386 13.1318L3.53922 14.8259C2.96055 15.1566 2.54196 15.7092 2.38031 16.3557C2.11041 17.4354 2.11041 18.5648 2.38031 19.6444C2.54196 20.291 2.96056 20.8436 3.53922 21.1742L6.50386 22.8683L7.49614 21.1318L4.5315 19.4378C4.42619 19.3776 4.35001 19.277 4.3206 19.1593C4.30736 19.1064 4.29505 19.0533 4.28366 19.0001H15.0355C15.9373 19.0001 16.6647 19.0001 17.2567 18.9597C17.8654 18.9182 18.4037 18.8306 18.9134 18.6195C20.1386 18.112 21.1119 17.1386 21.6194 15.9135C21.8305 15.4038 21.9181 14.8655 21.9596 14.2568C22 13.6648 22 12.9374 22 12.0356V12.0001H20C20 12.9456 19.9995 13.6047 19.9643 14.1206C19.9297 14.6275 19.865 14.9227 19.7716 15.1481C19.4672 15.8832 18.8831 16.4672 18.1481 16.7717C17.9227 16.8651 17.6275 16.9298 17.1206 16.9643C16.6047 16.9995 15.9456 17.0001 15 17.0001H4.28366C4.29505 16.9468 4.30736 16.8937 4.3206 16.8408C4.35001 16.7231 4.42619 16.6226 4.5315 16.5624L7.49614 14.8683L6.50386 13.1318Z" fill="#777EFF"/>
</svg>
