<svg width="116" height="45" viewBox="0 0 116 45" fill="none" xmlns="http://www.w3.org/2000/svg">
<g clip-path="url(#clip0_3627_1529)">
<path d="M9.06199 10.2456L8.72614 3.50606L36.3465 0L42.4412 2.82322L36.6546 6.76102L9.06199 10.2456Z" fill="#FFC220"/>
<path d="M19.4828 22.2183L26.0459 22.9195V36.2946H19.4828V22.2183Z" fill="#FFC220"/>
<path d="M34.8706 23.8351H34.7966V18.8439H29.2719V36.2976H34.7966V28.7405C34.7966 28.4833 35.2341 27.5646 36.1092 25.9846C36.9843 24.4046 38.0566 23.6207 39.3353 23.6207C40.157 23.6207 41.2354 24.0443 42.5706 24.8915V19.0736C41.9292 18.7109 41.2097 18.5062 40.4723 18.4765C38.3462 18.4765 36.479 20.2627 34.8706 23.8351Z" fill="#0071CE"/>
<path d="M44.6782 20.179V36.2946H50.206V20.1575C49.1121 21.7774 47.667 23.783 47.4329 24.1382C47.1617 23.7064 45.732 21.7406 44.6782 20.179Z" fill="#0071CE"/>
<path d="M63.6834 18.4734C61.8323 18.4647 60.0435 19.1365 58.6609 20.3596V18.8439H53.1362V45.0122H58.6609V35.4249C60.0328 36.2192 61.5934 36.6347 63.1811 36.6283C65.7838 36.6283 67.877 35.7832 69.4607 34.0929C71.0445 32.4027 71.8343 30.1572 71.8302 27.3564C71.8302 24.8639 71.0435 22.7603 69.47 21.0455C68.7513 20.2249 67.8613 19.5697 66.862 19.1255C65.8627 18.6813 64.778 18.4588 63.6834 18.4734ZM65.0514 31.5147C64.6684 31.9833 64.1808 32.3569 63.6272 32.6056C63.0737 32.8544 62.4694 32.9715 61.8623 32.9477C60.6979 32.9242 59.5733 32.522 58.6609 31.8025V23.7799C59.838 22.843 60.9791 22.3745 62.0842 22.3745C62.6687 22.3456 63.2516 22.4564 63.784 22.6978C64.3164 22.9392 64.7827 23.304 65.1439 23.7616C65.869 24.6863 66.2316 25.9805 66.2316 27.6443C66.2418 29.2712 65.8485 30.5614 65.0514 31.5147Z" fill="#0071CE"/>
<path d="M19.4828 14.061L4.86222 12.6708L0 14.9612L4.62496 18.5132L26.0458 20.6015V20.525V14.6856V10.1844L19.4828 10.9315V14.061Z" fill="#0071CE"/>
<path d="M103.314 31.5637V25.3508H115.162V20.6199H103.314V15.2031H115.738V10.4692H101.493H96.8408H95.8671L87.5138 20.0473L79.1574 10.4692H73.5372V36.2946H80.0079V20.1759L87.027 28.272H88.0006L95.0197 20.1759V36.2946H96.8408H101.493H116V31.5637H103.314Z" fill="#0071CE"/>
<path d="M51.1858 14.7714C51.0878 14.2032 50.8605 13.6649 50.5211 13.1974C50.1817 12.7299 49.7392 12.3458 49.2276 12.0743C48.7159 11.8027 48.1486 11.6511 47.5689 11.6308C46.9892 11.6105 46.4125 11.7222 45.883 11.9573C43.8586 12.8392 43.002 15.7818 44.1112 17.6773C44.3053 18.011 44.595 18.4581 44.9247 18.9449C45.8891 20.3657 47.1863 22.1479 47.4359 22.5337C47.6393 22.2275 48.9519 20.3902 49.9471 18.9266C50.2737 18.4428 50.5634 18.008 50.776 17.6558C51.2289 16.9056 51.3368 15.6165 51.1858 14.7714ZM47.4513 17.8579C46.9625 17.864 46.4829 17.7255 46.0735 17.46C45.6641 17.1946 45.3434 16.8142 45.1521 16.3671C44.9608 15.9201 44.9076 15.4266 44.9992 14.9494C45.0908 14.4722 45.3231 14.0329 45.6665 13.6872C46.01 13.3416 46.4492 13.1052 46.9281 13.0082C47.4071 12.9111 47.9043 12.9578 48.3566 13.1423C48.8088 13.3268 49.1956 13.6407 49.4678 14.0442C49.7401 14.4477 49.8855 14.9225 49.8855 15.4083C49.8855 16.0527 49.6301 16.6712 49.1744 17.1297C48.7188 17.5882 48.0997 17.8499 47.4513 17.8579Z" fill="#FFC220"/>
</g>
<defs>
<clipPath id="clip0_3627_1529">
<rect width="116" height="45" fill="white"/>
</clipPath>
</defs>
</svg>
