<svg width="16" height="16" viewBox="0 0 16 16" fill="none" xmlns="http://www.w3.org/2000/svg">
<path fill-rule="evenodd" clip-rule="evenodd" d="M8 6.27614C7.65756 6.27614 7.39225 6.42311 7.18732 6.57946C7.00554 6.71815 6.8113 6.91247 6.61143 7.11242L6.44575 7.2781C6.24581 7.47797 6.05149 7.67221 5.91279 7.85399C5.75644 8.05892 5.60948 8.32422 5.60948 8.66667C5.60948 9.00911 5.75644 9.27442 5.9128 9.47935C6.05149 9.66113 6.2458 9.85537 6.44575 10.0552L6.61143 10.2209C6.8113 10.4209 7.00554 10.6152 7.18732 10.7539C7.39225 10.9102 7.65756 11.0572 8 11.0572C8.34244 11.0572 8.60775 10.9102 8.81268 10.7539C8.99446 10.6152 9.1887 10.4209 9.38856 10.2209L9.55424 10.0552C9.75419 9.85537 9.94851 9.66113 10.0872 9.47935C10.2436 9.27442 10.3905 9.00911 10.3905 8.66667C10.3905 8.32422 10.2436 8.05892 10.0872 7.85399C9.94851 7.67221 9.7542 7.47797 9.55425 7.27811L9.38857 7.11242C9.1887 6.91247 8.99446 6.71816 8.81268 6.57946C8.60775 6.4231 8.34244 6.27614 8 6.27614ZM7.52859 8.08088C7.76414 7.84533 7.89438 7.71709 7.9961 7.63949L8 7.63653L8.0039 7.63949C8.10562 7.71709 8.23586 7.84533 8.4714 8.08088L8.58579 8.19526C8.82133 8.43081 8.94957 8.56105 9.02718 8.66276L9.03014 8.66667L9.02718 8.67057C8.94957 8.77228 8.82133 8.90252 8.58579 9.13807L8.47141 9.25245C8.23586 9.488 8.10562 9.61624 8.0039 9.69384L8 9.69681L7.9961 9.69384C7.89438 9.61624 7.76414 9.488 7.5286 9.25245L7.41421 9.13807C7.17867 8.90252 7.05043 8.77228 6.97282 8.67057L6.96986 8.66667L6.97282 8.66276C7.05043 8.56105 7.17866 8.43081 7.41421 8.19526L7.52859 8.08088Z" fill="#52525B"/>
<path fill-rule="evenodd" clip-rule="evenodd" d="M13.2468 1.91214C9.76007 1.52473 6.24112 1.52473 2.75437 1.91214L2.60641 1.92859C1.93377 2.00332 1.36598 2.46234 1.15196 3.10438C0.813929 4.11848 0.81393 5.21486 1.15196 6.22895L1.20242 6.38033C1.36723 6.87476 1.73246 7.27704 2.20872 7.48871L2.66726 7.69251V11.9074C2.66726 13.0574 3.51283 14.0323 4.65121 14.195C6.87286 14.5123 9.12833 14.5123 11.35 14.195C12.4884 14.0323 13.3339 13.0574 13.3339 11.9074V7.69251L13.7925 7.48871C14.2687 7.27704 14.634 6.87476 14.7988 6.38033L14.8492 6.22895C15.1873 5.21486 15.1873 4.11848 14.8492 3.10438C14.6352 2.46234 14.0674 2.00332 13.3948 1.92859L13.2468 1.91214ZM2.90162 3.23732C6.29051 2.86078 9.71068 2.86078 13.0996 3.23732L13.2475 3.25376C13.4033 3.27107 13.5348 3.37735 13.5843 3.52602C13.8311 4.26643 13.8311 5.06691 13.5843 5.80731L13.5339 5.95869C13.4875 6.09769 13.3848 6.21079 13.251 6.2703L12.0006 6.82601V11.9074C12.0006 12.3938 11.6429 12.8062 11.1614 12.875C9.06484 13.1745 6.93635 13.1745 4.83978 12.875C4.35826 12.8062 4.0006 12.3938 4.0006 11.9074V6.82601L2.75024 6.2703C2.61634 6.21079 2.51367 6.09769 2.46733 5.95869L2.41687 5.80731C2.17007 5.06691 2.17007 4.26643 2.41687 3.52602C2.46643 3.37735 2.5979 3.27107 2.75365 3.25376L2.90162 3.23732Z" fill="#52525B"/>
</svg>
