<svg width="80" height="80" viewBox="0 0 80 80" fill="none" xmlns="http://www.w3.org/2000/svg">
<path d="M0 40C0 17.9086 17.9086 0 40 0C62.0914 0 80 17.9086 80 40C80 62.0914 62.0914 80 40 80C17.9086 80 0 62.0914 0 40Z" fill="white"/>
<path d="M54.7168 39.1083C52.7618 49.1916 40.0002 54.9999 40.0002 54.9999C40.0002 54.9999 27.2384 49.1916 25.2817 39.1083C24.0817 32.9216 26.7035 26.6983 33.3685 26.6666C38.3335 26.6433 40.0002 31.6466 40.0002 31.6466C40.0002 31.6466 41.6669 26.6416 46.6302 26.6666C53.3102 26.6983 55.9168 32.9233 54.7168 39.1083Z" fill="#F4349D"/>
</svg>
