<svg width="80" height="80" viewBox="0 0 80 80" fill="none" xmlns="http://www.w3.org/2000/svg">
<path d="M0 40C0 17.9086 17.9086 0 40 0C62.0914 0 80 17.9086 80 40C80 62.0914 62.0914 80 40 80C17.9086 80 0 62.0914 0 40Z" fill="white"/>
<path d="M41.6667 28.318C41.6667 26.8263 43.49 26.1014 44.515 27.1864L54.3949 37.6364C55.2016 38.4897 55.2016 39.823 54.3949 40.6764L44.515 51.1264C43.49 52.2097 41.6667 51.4848 41.6667 49.9948V44.1529C29.0617 44.1529 28.2267 48.2698 28.28 52.5481C28.29 53.3648 27.2083 53.6348 26.805 52.9265C25.7783 51.1248 25 48.6663 25 45.818C25 34.993 36.6667 34.1615 41.6667 34.1615V28.318Z" fill="#F4349D"/>
</svg>
