<svg width="24" height="24" viewBox="0 0 24 24" fill="none" xmlns="http://www.w3.org/2000/svg">
<path fill-rule="evenodd" clip-rule="evenodd" d="M13.6172 3.05835C12.8184 1.96232 11.1834 1.96232 10.3846 3.05835C10.2836 3.1969 10.1887 3.3877 10.1046 3.55653L10.0778 3.61037L9.49382 4.77832C9.16965 5.42666 9.00088 6.14157 9.00088 6.86643C9.00088 7.26393 9.08403 7.64879 9.23749 8.00026H7.11049C6.01741 8.00026 5.04697 8.69972 4.70131 9.7367C4.2357 11.1335 4.21273 12.6381 4.6324 14.0455C3.74247 14.2159 2.99554 14.854 2.70131 15.7367C2.21154 17.206 2.21154 18.7945 2.70131 20.2638C3.04697 21.3008 4.01741 22.0003 5.11049 22.0003H18.8913C19.9844 22.0003 20.9548 21.3008 21.3005 20.2638C21.7902 18.7945 21.7902 17.206 21.3005 15.7367C21.0062 14.854 20.2593 14.2159 19.3694 14.0455C19.789 12.6381 19.7661 11.1335 19.3005 9.7367C18.9548 8.69972 17.9844 8.00026 16.8913 8.00026H14.7643C14.9177 7.64879 15.0009 7.26393 15.0009 6.86643C15.0009 6.14157 14.8321 5.42666 14.5079 4.77832L13.924 3.61037L13.8971 3.55653C13.8131 3.3877 13.7181 3.19689 13.6172 3.05835ZM11.8666 4.5048C11.926 4.38609 11.9628 4.31268 11.9908 4.25981L12.0009 4.24093L12.011 4.25981C12.039 4.31268 12.0758 4.38609 12.1351 4.5048L12.7191 5.67275C12.9044 6.04337 13.0009 6.45206 13.0009 6.86643C13.0009 7.18254 12.8223 7.47153 12.5395 7.6129L12.4481 7.65862C12.1666 7.79938 11.8352 7.79938 11.5537 7.65862L11.4622 7.6129C11.1795 7.47153 11.0009 7.18254 11.0009 6.86643C11.0009 6.45206 11.0974 6.04337 11.2827 5.67275L11.8666 4.5048ZM17.4031 13.6314C17.3297 13.8517 17.1235 14.0003 16.8913 14.0003H7.11049C6.87827 14.0003 6.67211 13.8517 6.59868 13.6314C6.24575 12.5726 6.24575 11.4279 6.59868 10.3692C6.67211 10.1489 6.87827 10.0003 7.11049 10.0003H16.8913C17.1235 10.0003 17.3297 10.1489 17.4031 10.3692C17.756 11.4279 17.756 12.5726 17.4031 13.6314ZM5.11049 16.0003H18.8913C19.1235 16.0003 19.3297 16.1489 19.4031 16.3692C19.756 17.4279 19.756 18.5726 19.4031 19.6314C19.3297 19.8517 19.1235 20.0003 18.8913 20.0003H5.11049C4.87827 20.0003 4.67211 19.8517 4.59868 19.6314C4.24575 18.5726 4.24575 17.4279 4.59868 16.3692C4.67211 16.1489 4.87827 16.0003 5.11049 16.0003Z" fill="#A1A1AA"/>
</svg>
