<svg width="20" height="20" viewBox="0 0 20 20" fill="none" xmlns="http://www.w3.org/2000/svg">
<path fill-rule="evenodd" clip-rule="evenodd" d="M9.99946 6.45855C7.69827 6.45855 5.83279 8.32403 5.83279 10.6252C5.83279 12.9264 7.69827 14.7919 9.99946 14.7919C12.3006 14.7919 14.1661 12.9264 14.1661 10.6252C14.1661 8.32403 12.3006 6.45855 9.99946 6.45855ZM7.49946 10.6252C7.49946 9.24451 8.61875 8.12522 9.99946 8.12522C11.3802 8.12522 12.4995 9.24451 12.4995 10.6252C12.4995 12.0059 11.3802 13.1252 9.99946 13.1252C8.61875 13.1252 7.49946 12.0059 7.49946 10.6252Z" fill="white"/>
<path fill-rule="evenodd" clip-rule="evenodd" d="M12.1704 2.34546C10.7612 1.87573 9.23769 1.87573 7.8285 2.34546C7.23942 2.54182 6.75246 2.96416 6.47477 3.51955L6.36133 3.74642C6.23249 4.00411 5.96911 4.16689 5.681 4.16689H5.45852C3.585 4.16689 1.99658 5.54451 1.73162 7.3992C1.40619 9.67721 1.40619 11.9899 1.73162 14.2679C1.99658 16.1226 3.585 17.5002 5.45852 17.5002H14.5404C16.4139 17.5002 18.0023 16.1226 18.2673 14.2679C18.5927 11.9899 18.5927 9.67721 18.2673 7.3992C18.0023 5.54451 16.4139 4.16689 14.5404 4.16689H14.3179C14.0298 4.16689 13.7664 4.00411 13.6376 3.74642L13.5242 3.51955C13.2465 2.96416 12.7595 2.54182 12.1704 2.34546ZM8.35555 3.9266C9.42263 3.57091 10.5763 3.57091 11.6434 3.9266C11.8131 3.98318 11.9534 4.10487 12.0334 4.26491L12.1469 4.49178C12.558 5.31411 13.3985 5.83355 14.3179 5.83355H14.5404C15.5845 5.83355 16.4697 6.6013 16.6174 7.63491C16.9205 9.75657 16.9205 11.9105 16.6174 14.0322C16.4697 15.0658 15.5845 15.8336 14.5404 15.8336H5.45852C4.41441 15.8336 3.52919 15.0658 3.38154 14.0322C3.07844 11.9105 3.07844 9.75657 3.38154 7.63491C3.52919 6.6013 4.41441 5.83355 5.45852 5.83355H5.681C6.60039 5.83355 7.44088 5.31411 7.85204 4.49178L7.96548 4.26491C8.04549 4.10487 8.18581 3.98318 8.35555 3.9266Z" fill="white"/>
</svg>
