<svg width="71" height="72" viewBox="0 0 71 72" fill="none" xmlns="http://www.w3.org/2000/svg">
<path d="M15.9876 1.70416C28.9562 0.266419 42.044 0.266419 55.0126 1.70416C57.3504 1.96707 59.6061 2.72192 61.6312 3.91907C63.6564 5.11622 65.4052 6.72854 66.7626 8.64999L33.4168 41.9958L23.1251 31.7042C22.8367 31.4058 22.4917 31.1679 22.1104 31.0043C21.7291 30.8407 21.319 30.7547 20.904 30.7513C20.4891 30.7479 20.0776 30.8272 19.6937 30.9845C19.3097 31.1418 18.9609 31.374 18.6676 31.6675C18.3743 31.9611 18.1425 32.3101 17.9855 32.6942C17.8286 33.0784 17.7497 33.4899 17.7535 33.9048C17.7573 34.3198 17.8437 34.7298 18.0076 35.111C18.1716 35.4922 18.4098 35.8369 18.7084 36.125L31.2084 48.625C31.7944 49.2102 32.5886 49.5389 33.4168 49.5389C34.2449 49.5389 35.0392 49.2102 35.6251 48.625L69.4418 14.8125C69.5334 15.2681 69.607 15.7306 69.6626 16.2C71.2043 29.3542 71.2043 42.6458 69.6626 55.8C68.7668 63.45 62.6209 69.4458 55.0126 70.3C42.044 71.7377 28.9562 71.7377 15.9876 70.3C8.37509 69.4458 2.22926 63.45 1.33759 55.8C-0.197492 42.6446 -0.197492 29.3554 1.33759 16.2C2.22926 8.54583 8.37926 2.55416 15.9876 1.69999" fill="#1877F2"/>
</svg>
