<svg width="16" height="16" viewBox="0 0 16 16" fill="none" xmlns="http://www.w3.org/2000/svg">
<path fill-rule="evenodd" clip-rule="evenodd" d="M5.07663 2.14864C5.82448 1.31486 6.79653 0.666504 7.99984 0.666504C9.20315 0.666504 10.1752 1.31486 10.9231 2.14864C11.67 2.98139 12.2543 4.06286 12.6992 5.09816C13.2674 6.42004 13.7095 7.9528 13.7413 9.43873C13.7732 10.9316 13.3889 12.4293 12.2425 13.5758C11.1173 14.701 9.59114 15.3332 7.99984 15.3332C6.40854 15.3332 4.88242 14.701 3.7572 13.5758C2.61074 12.4293 2.22652 10.9316 2.25841 9.43873C2.29015 7.9528 2.73232 6.42004 3.30046 5.09816C3.74542 4.06286 4.32969 2.98139 5.07663 2.14864ZM6.06919 3.03891C5.46014 3.71794 4.94409 4.65058 4.52544 5.62465C3.99867 6.8503 3.61832 8.20869 3.59143 9.4672C3.5647 10.7188 3.88576 11.8188 4.70001 12.633C5.57518 13.5082 6.76216 13.9998 7.99984 13.9998C9.23752 13.9998 10.4245 13.5082 11.2997 12.633C12.1139 11.8188 12.435 10.7188 12.4082 9.4672C12.3814 8.20869 12.001 6.8503 11.4742 5.62465C11.0556 4.65058 10.5395 3.71794 9.93049 3.03891C9.32236 2.36092 8.68277 1.99984 7.99984 1.99984C7.31691 1.99984 6.67732 2.36092 6.06919 3.03891Z" fill="#52525B"/>
</svg>
