<svg width="20" height="20" viewBox="0 0 20 20" fill="none" xmlns="http://www.w3.org/2000/svg">
<path d="M10 3.5C14.8112 3.5 18.8538 6.68696 20 11C18.8538 15.3131 14.8112 18.5 10 18.5C5.18881 18.4999 1.14622 15.313 0 11C1.14622 6.68698 5.18881 3.50006 10 3.5ZM10 5.16699C6.149 5.16699 2.88538 7.61825 1.78906 11C2.88538 14.3817 6.149 16.833 10 16.833C13.8509 16.833 17.1147 14.3817 18.2109 11C17.1147 7.61824 13.8509 5.16702 10 5.16699ZM10 7.66699C11.8409 7.66704 13.333 9.15908 13.333 11C13.333 12.8409 11.8409 14.333 10 14.333C8.15903 14.333 6.66699 12.8409 6.66699 11C6.66699 9.15905 8.15903 7.66699 10 7.66699ZM10 9.33301C9.0795 9.33301 8.33301 10.0795 8.33301 11C8.33301 11.9205 9.0795 12.667 10 12.667C10.9204 12.6669 11.667 11.9205 11.667 11C11.667 10.0795 10.9204 9.33306 10 9.33301Z" fill="#DBDBDB"/>
</svg>
