<svg width="24" height="24" viewBox="0 0 24 24" fill="none" xmlns="http://www.w3.org/2000/svg">
<path d="M2 11C2 5.477 6.477 1 12 1C17.523 1 22 5.477 22 11V14C22 16.64 21.43 19.15 20.408 21.412L19.995 22.323L18.173 21.499L18.585 20.588C19.5219 18.5183 20.0044 16.2719 20 14V11C20 8.87827 19.1571 6.84344 17.6569 5.34315C16.1566 3.84285 14.1217 3 12 3C9.87827 3 7.84344 3.84285 6.34315 5.34315C4.84285 6.84344 4 8.87827 4 11V14H2V11ZM6.5 11C6.5 9.54131 7.07946 8.14236 8.11091 7.11091C9.14236 6.07946 10.5413 5.5 12 5.5C13.4587 5.5 14.8576 6.07946 15.8891 7.11091C16.9205 8.14236 17.5 9.54131 17.5 11V14C17.5 16.8 16.647 19.403 15.186 21.56L14.625 22.389L12.969 21.267L13.529 20.439C14.8171 18.539 15.5039 16.2955 15.5 14V11C15.5 10.5404 15.4095 10.0852 15.2336 9.66061C15.0577 9.23597 14.7999 8.85013 14.4749 8.52513C14.1499 8.20012 13.764 7.94231 13.3394 7.76642C12.9148 7.59053 12.4596 7.5 12 7.5C11.5404 7.5 11.0852 7.59053 10.6606 7.76642C10.236 7.94231 9.85013 8.20012 9.52513 8.52513C9.20012 8.85013 8.94231 9.23597 8.76642 9.66061C8.59053 10.0852 8.5 10.5404 8.5 11V14C8.5 15.1935 8.02589 16.3381 7.18198 17.182C6.33807 18.0259 5.19347 18.5 4 18.5H2V16.5H4C4.66304 16.5 5.29893 16.2366 5.76777 15.7678C6.23661 15.2989 6.5 14.663 6.5 14V11ZM13 10V14C13 17.39 11.125 20.34 8.361 21.874L7.487 22.36L6.517 20.61L7.391 20.126C8.48486 19.5203 9.39651 18.6326 10.0312 17.5553C10.6659 16.478 11.0004 15.2504 11 14V10H13Z" fill="#051F42"/>
</svg>
