<svg width="32" height="32" viewBox="0 0 32 32" fill="none" xmlns="http://www.w3.org/2000/svg">
<path d="M13.9799 21.2394L16.0007 19.2186L18.0214 21.2394C19.1417 22.3596 19.5665 23.9991 19.1313 25.5224C18.9939 26.0031 18.6283 26.385 18.154 26.5431L17.8122 26.657C16.6363 27.049 15.365 27.049 14.1891 26.657L13.8473 26.5431C13.3731 26.385 13.0074 26.0031 12.87 25.5224C12.4348 23.9991 12.8596 22.3596 13.9799 21.2394Z" fill="#F566A9"/>
<path fill-rule="evenodd" clip-rule="evenodd" d="M12.3337 2.32831C12.9044 1.84121 13.7602 1.2922 14.8257 1.57646C15.8912 1.86072 16.3598 2.76308 16.612 3.46972C16.8607 4.16661 17.0498 5.11277 17.2636 6.18253L17.8583 9.15609C18.0169 9.94903 18.1145 10.4256 18.2204 10.7506L18.2326 10.7871L18.265 10.7664C18.5515 10.5799 18.9266 10.2702 19.5478 9.75248L19.911 9.44982C20.1344 9.26358 20.3502 9.08376 20.5431 8.94397C20.7521 8.79248 21.0154 8.62638 21.3452 8.52539C22.0873 8.29812 22.8916 8.40546 23.5482 8.81938C23.84 9.00332 24.0505 9.23264 24.2125 9.43365C24.362 9.61914 24.523 9.84925 24.6898 10.0876L24.7103 10.1168C25.9478 11.8847 26.8052 13.8899 27.2284 16.0059L27.4467 17.0973C27.8299 19.0132 27.8299 20.9861 27.4467 22.9021L27.4328 22.9713C26.849 25.8905 24.6832 28.239 21.8208 29.0568C18.0169 30.1437 13.9846 30.1437 10.1807 29.0568C7.31825 28.239 5.15252 25.8905 4.56868 22.9714L4.50629 22.6594C4.15919 20.9239 4.10973 19.142 4.36003 17.39L4.50212 16.3953C5.09032 12.2779 6.86139 8.41987 9.60025 5.28976L10.4173 4.35598C11.1356 3.5349 11.7709 2.80868 12.3337 2.32831ZM17.8779 17.3247C16.8411 16.2879 15.1602 16.2879 14.1234 17.3247L12.0942 19.3538C10.2892 21.1588 9.60469 23.8005 10.306 26.255C10.6851 27.582 11.6947 28.6365 13.004 29.0729L13.3459 29.1869C15.0691 29.7613 16.9322 29.7613 18.6554 29.1869L18.9973 29.0729C20.3066 28.6365 21.3162 27.582 21.6953 26.255C22.3966 23.8005 21.7121 21.1588 19.9071 19.3538L17.8779 17.3247Z" fill="#F566A9"/>
</svg>
