<svg width="24" height="24" viewBox="0 0 24 24" fill="none" xmlns="http://www.w3.org/2000/svg">
<path d="M11.1193 1.18247C10.3202 0.969271 9.67831 1.38103 9.2503 1.74635C8.82819 2.10664 8.3517 2.65129 7.81297 3.26711L7.20018 3.96744C5.14605 6.31503 3.81774 9.20854 3.37659 12.2966L3.27002 13.0426C3.0823 14.3567 3.11939 15.6931 3.37972 16.9947L3.42651 17.2286C3.86439 19.418 5.48869 21.1794 7.63553 21.7927C10.4885 22.6079 13.5127 22.6079 16.3656 21.7927C18.5124 21.1794 20.1367 19.418 20.5746 17.2286L20.585 17.1767C20.8724 15.7397 20.8724 14.26 20.585 12.8231L20.4213 12.0046C20.1039 10.4176 19.4608 8.91363 18.5327 7.58776L18.5174 7.5658C18.3923 7.38706 18.2715 7.21448 18.1594 7.07536C18.0378 6.9246 17.88 6.75261 17.6611 6.61466C17.1687 6.30421 16.5655 6.22371 16.0089 6.39416C15.7616 6.46991 15.5641 6.59448 15.4073 6.7081C15.2626 6.81294 15.1008 6.9478 14.9333 7.08748L14.6609 7.31448C14.1949 7.70274 13.9136 7.93502 13.6988 8.07489L13.6744 8.09048L13.6653 8.06307C13.5858 7.81933 13.5127 7.46189 13.3937 6.86719L12.9477 4.63705C12.7874 3.83472 12.6455 3.12508 12.459 2.60242C12.2698 2.07244 11.9184 1.39567 11.1193 1.18247Z" fill="#F97316"/>
</svg>
