<svg width="16" height="16" viewBox="0 0 16 16" fill="none" xmlns="http://www.w3.org/2000/svg">
<path d="M12.6663 3.33313C12.6663 3.70132 12.3679 3.9998 11.9997 3.9998C11.6315 3.9998 11.333 3.70132 11.333 3.33313C11.333 2.96494 11.6315 2.66646 11.9997 2.66646C12.3679 2.66646 12.6663 2.96494 12.6663 3.33313Z" fill="#52525B"/>
<path fill-rule="evenodd" clip-rule="evenodd" d="M14.3216 0.703348C14.4547 0.707408 14.652 0.729969 14.8454 0.854433C14.9656 0.931763 15.0677 1.03394 15.1451 1.15409C15.2695 1.34746 15.2921 1.54476 15.2962 1.67791C15.2997 1.79379 15.2894 1.92708 15.2805 2.04198L15.2761 2.09852C15.1532 3.69619 15.0574 4.94263 14.8851 5.93666C14.7096 6.94932 14.4459 7.76122 13.9509 8.46957C13.5478 9.04643 13.0463 9.54787 12.4695 9.95097C11.7611 10.446 10.9492 10.7097 9.93657 10.8852C8.94253 11.0575 7.69608 11.1533 6.09838 11.2762L5.99973 11.2838L5.99971 13.3331L5.99981 13.3843C6.00026 13.5502 6.00079 13.7442 5.96145 13.9049C5.78837 14.6117 5.08047 15.0493 4.37084 14.8879C4.20955 14.8513 4.03623 14.764 3.88801 14.6894L3.84233 14.6665L3.81814 14.6544C3.56291 14.5268 3.40244 14.4465 3.25009 14.3553C2.59073 13.9604 2.0391 13.4088 1.64421 12.7494C1.55296 12.5971 1.47279 12.4367 1.34517 12.1814L1.33305 12.1572L1.3101 12.1115C1.23548 11.9633 1.14823 11.79 1.11157 11.6287C0.950259 10.919 1.38777 10.2111 2.09462 10.0381C2.25528 9.99872 2.44931 9.99925 2.61526 9.99971L2.66638 9.9998L4.71569 9.99978L4.72328 9.90112C4.84618 8.30343 4.94205 7.05698 5.11433 6.06294C5.28983 5.05028 5.55355 4.23838 6.04854 3.53003C6.45164 2.95317 6.95308 2.45173 7.52994 2.04863C8.23829 1.55364 9.05019 1.28992 10.0629 1.11442C11.0569 0.942142 12.3033 0.846265 13.901 0.723371L13.9575 0.71902C14.0724 0.710129 14.2057 0.699815 14.3216 0.703348ZM13.942 2.05749C12.3519 2.17987 11.1967 2.27112 10.2905 2.42817C9.54626 2.55716 9.01093 2.72453 8.57549 2.9658L13.0337 7.42402C13.275 6.98858 13.4424 6.45325 13.5713 5.70897C13.7284 4.8028 13.8196 3.64765 13.942 2.05749ZM12.1917 8.46766L7.53185 3.80778C7.3913 3.96062 7.26084 4.12294 7.14147 4.29376C6.80225 4.77919 6.58629 5.37774 6.42808 6.29063C6.27103 7.19681 6.17978 8.35195 6.0574 9.94211C7.64756 9.81973 8.80271 9.72848 9.70889 9.57144C10.6218 9.41323 11.2203 9.19726 11.7058 8.85804C11.8766 8.73867 12.0389 8.60822 12.1917 8.46766ZM2.41583 11.3357L2.42146 11.3482C2.44244 11.3943 2.47341 11.4565 2.52561 11.5609C2.66919 11.848 2.72602 11.9607 2.78809 12.0644C3.07016 12.5353 3.46418 12.9294 3.93515 13.2114C4.0388 13.2735 4.15148 13.3303 4.43862 13.4739C4.54302 13.5261 4.6052 13.5571 4.65128 13.5781L4.66385 13.5837L4.66443 13.5699C4.66627 13.5193 4.66638 13.4499 4.66638 13.3331V11.3331H2.66638C2.54965 11.3331 2.48019 11.3332 2.42959 11.3351L2.41583 11.3357Z" fill="#52525B"/>
</svg>
