<svg width="87" height="93" viewBox="0 0 87 93" fill="none" xmlns="http://www.w3.org/2000/svg">
<g clip-path="url(#clip0_2002_2383)" filter="url(#filter0_dd_2002_2383)">
<path d="M39.2798 9.07161C41.755 7.64255 44.8046 7.64255 47.2798 9.07161L66.5596 20.2028C69.0348 21.6319 70.5596 24.2729 70.5596 27.131V49.3934C70.5596 52.2515 69.0348 54.8925 66.5596 56.3216L47.2798 67.4528C44.8046 68.8819 41.755 68.8819 39.2798 67.4528L20 56.3216C17.5248 54.8925 16 52.2515 16 49.3934V27.131C16 24.2729 17.5248 21.6319 20 20.2028L39.2798 9.07161Z" fill="#84CC16"/>
<path d="M41.5488 15.3247C42.6228 14.7129 43.9397 14.7129 45.0137 15.3247L62.5137 25.2954C63.6062 25.9179 64.2811 27.079 64.2812 28.3364V48.188C64.2811 49.4454 63.6062 50.6065 62.5137 51.229L45.0137 61.1997C43.9397 61.8115 42.6228 61.8115 41.5488 61.1997L24.0488 51.229C22.9563 50.6065 22.2814 49.4454 22.2812 48.188V28.3364C22.2814 27.079 22.9563 25.9179 24.0488 25.2954L41.5488 15.3247Z" fill="#65A30D" stroke="url(#paint0_linear_2002_2383)"/>
<g filter="url(#filter1_dd_2002_2383)">
<path fill-rule="evenodd" clip-rule="evenodd" d="M48.8957 25.395C45.2513 24.1802 41.3111 24.1802 37.6667 25.395C35.4458 26.1353 33.9479 28.2136 33.9479 30.5546V41.97C33.9479 44.311 35.4458 46.3893 37.6667 47.1296C39.0658 47.5959 40.5085 47.8833 41.9614 47.9916C41.975 48.4974 42.0024 48.9572 42.0574 49.366C42.1749 50.24 42.4399 51.0778 43.1194 51.7574C43.799 52.4369 44.6368 52.7019 45.5108 52.8194C46.3264 52.9291 47.3448 52.929 48.5267 52.929L52.6145 52.9289V50.2623H48.6145C47.3198 50.2623 46.4828 50.2595 45.8661 50.1765C45.2878 50.0988 45.1066 49.9733 45.0051 49.8718C44.9036 49.7703 44.778 49.589 44.7003 49.0107C44.6619 48.7253 44.6407 48.3927 44.629 47.9895C46.0724 47.8796 47.5056 47.593 48.8957 47.1296C51.1166 46.3893 52.6145 44.311 52.6145 41.97V30.5546C52.6145 28.2136 51.1166 26.1353 48.8957 25.395ZM38.51 27.9248C41.607 26.8925 44.9554 26.8925 48.0525 27.9248C48.6165 28.1128 49.089 28.4701 49.4212 28.9289H43.2812V31.5956H49.9479V34.2623L44.6145 34.2623V36.9289H49.9479V39.5956H46.5002C45.6464 39.5956 44.8277 39.2565 44.224 38.6528C43.1203 37.549 41.6232 36.9289 40.0623 36.9289H36.6145V30.5546C36.6145 29.3614 37.378 28.3021 38.51 27.9248Z" fill="white"/>
</g>
</g>
<defs>
<filter id="filter0_dd_2002_2383" x="-4.71875" y="-1.73779" width="96" height="96" filterUnits="userSpaceOnUse" color-interpolation-filters="sRGB">
<feFlood flood-opacity="0" result="BackgroundImageFix"/>
<feColorMatrix in="SourceAlpha" type="matrix" values="0 0 0 0 0 0 0 0 0 0 0 0 0 0 0 0 0 0 127 0" result="hardAlpha"/>
<feOffset dy="8"/>
<feGaussianBlur stdDeviation="8"/>
<feColorMatrix type="matrix" values="0 0 0 0 0.0588235 0 0 0 0 0.0901961 0 0 0 0 0.164706 0 0 0 0.02 0"/>
<feBlend mode="normal" in2="BackgroundImageFix" result="effect1_dropShadow_2002_2383"/>
<feColorMatrix in="SourceAlpha" type="matrix" values="0 0 0 0 0 0 0 0 0 0 0 0 0 0 0 0 0 0 127 0" result="hardAlpha"/>
<feOffset dy="4"/>
<feGaussianBlur stdDeviation="4"/>
<feColorMatrix type="matrix" values="0 0 0 0 0.0588235 0 0 0 0 0.0901961 0 0 0 0 0.164706 0 0 0 0.03 0"/>
<feBlend mode="normal" in2="effect1_dropShadow_2002_2383" result="effect2_dropShadow_2002_2383"/>
<feBlend mode="normal" in="SourceGraphic" in2="effect2_dropShadow_2002_2383" result="shape"/>
</filter>
<filter id="filter1_dd_2002_2383" x="15.2812" y="22.2622" width="56" height="56" filterUnits="userSpaceOnUse" color-interpolation-filters="sRGB">
<feFlood flood-opacity="0" result="BackgroundImageFix"/>
<feColorMatrix in="SourceAlpha" type="matrix" values="0 0 0 0 0 0 0 0 0 0 0 0 0 0 0 0 0 0 127 0" result="hardAlpha"/>
<feMorphology radius="2" operator="erode" in="SourceAlpha" result="effect1_dropShadow_2002_2383"/>
<feOffset dy="4"/>
<feGaussianBlur stdDeviation="3"/>
<feColorMatrix type="matrix" values="0 0 0 0 0.109804 0 0 0 0 0.0980392 0 0 0 0 0.0901961 0 0 0 0.03 0"/>
<feBlend mode="normal" in2="BackgroundImageFix" result="effect1_dropShadow_2002_2383"/>
<feColorMatrix in="SourceAlpha" type="matrix" values="0 0 0 0 0 0 0 0 0 0 0 0 0 0 0 0 0 0 127 0" result="hardAlpha"/>
<feMorphology radius="4" operator="erode" in="SourceAlpha" result="effect2_dropShadow_2002_2383"/>
<feOffset dy="12"/>
<feGaussianBlur stdDeviation="8"/>
<feColorMatrix type="matrix" values="0 0 0 0 0.109804 0 0 0 0 0.0980392 0 0 0 0 0.0901961 0 0 0 0.08 0"/>
<feBlend mode="normal" in2="effect1_dropShadow_2002_2383" result="effect2_dropShadow_2002_2383"/>
<feBlend mode="normal" in="SourceGraphic" in2="effect2_dropShadow_2002_2383" result="shape"/>
</filter>
<linearGradient id="paint0_linear_2002_2383" x1="43.2812" y1="13.7622" x2="43.2813" y2="62.7622" gradientUnits="userSpaceOnUse">
<stop stop-color="#65A30D" stop-opacity="0"/>
<stop offset="1" stop-color="#65A30D"/>
</linearGradient>
<clipPath id="clip0_2002_2383">
<rect width="64" height="64" fill="white" transform="translate(11.2812 6.26221)"/>
</clipPath>
</defs>
</svg>
