<svg width="343" height="20" viewBox="0 0 343 20" fill="none" xmlns="http://www.w3.org/2000/svg">
<g clip-path="url(#clip0_306_2915)">
<path d="M132.578 5.62C133.418 5.62 134.155 5.76467 134.79 6.054C135.425 6.34333 135.966 6.77267 136.414 7.342L135.336 8.588C134.953 8.10267 134.533 7.748 134.076 7.524C133.628 7.29067 133.105 7.174 132.508 7.174C132.116 7.174 131.789 7.22533 131.528 7.328C131.276 7.43067 131.089 7.566 130.968 7.734C130.856 7.902 130.8 8.08867 130.8 8.294C130.8 8.546 130.898 8.76067 131.094 8.938C131.29 9.106 131.626 9.246 132.102 9.358L133.824 9.75C134.739 9.95533 135.392 10.2633 135.784 10.674C136.185 11.0753 136.386 11.598 136.386 12.242C136.386 12.8487 136.227 13.3713 135.91 13.81C135.593 14.2393 135.149 14.5707 134.58 14.804C134.011 15.028 133.357 15.14 132.62 15.14C131.976 15.14 131.383 15.0653 130.842 14.916C130.31 14.7573 129.834 14.5427 129.414 14.272C128.994 14.0013 128.644 13.6887 128.364 13.334L129.456 12.032C129.671 12.3307 129.937 12.5967 130.254 12.83C130.571 13.0633 130.931 13.25 131.332 13.39C131.743 13.5207 132.172 13.586 132.62 13.586C133.003 13.586 133.325 13.544 133.586 13.46C133.857 13.3667 134.057 13.2407 134.188 13.082C134.328 12.914 134.398 12.7133 134.398 12.48C134.398 12.2373 134.314 12.032 134.146 11.864C133.987 11.6867 133.689 11.5513 133.25 11.458L131.374 11.038C130.833 10.9073 130.366 10.7393 129.974 10.534C129.591 10.3193 129.297 10.0487 129.092 9.722C128.896 9.386 128.798 8.98933 128.798 8.532C128.798 7.98133 128.947 7.48667 129.246 7.048C129.545 6.60933 129.974 6.264 130.534 6.012C131.103 5.75067 131.785 5.62 132.578 5.62ZM138.859 6.992C138.457 6.992 138.159 6.908 137.963 6.74C137.767 6.56267 137.669 6.306 137.669 5.97C137.669 5.62467 137.767 5.368 137.963 5.2C138.159 5.02267 138.457 4.934 138.859 4.934C139.26 4.934 139.559 5.02267 139.755 5.2C139.951 5.368 140.049 5.62467 140.049 5.97C140.049 6.306 139.951 6.56267 139.755 6.74C139.559 6.908 139.26 6.992 138.859 6.992ZM139.811 8V15H137.893V8H139.811ZM148.214 6.334L148.438 7.706C148.401 7.706 148.359 7.706 148.312 7.706C148.275 7.69667 148.233 7.692 148.186 7.692C147.757 7.692 147.435 7.79 147.22 7.986C147.005 8.17267 146.898 8.434 146.898 8.77L146.114 8.448C146.114 8.07467 146.189 7.72933 146.338 7.412C146.487 7.08533 146.707 6.824 146.996 6.628C147.295 6.432 147.649 6.334 148.06 6.334C148.079 6.334 148.102 6.334 148.13 6.334C148.158 6.334 148.186 6.334 148.214 6.334ZM145.918 13.684C146.674 13.684 147.257 13.8473 147.668 14.174C148.079 14.5007 148.284 14.958 148.284 15.546C148.284 16.078 148.13 16.526 147.822 16.89C147.514 17.2633 147.08 17.5433 146.52 17.73C145.969 17.9167 145.33 18.01 144.602 18.01C143.398 18.01 142.516 17.842 141.956 17.506C141.405 17.17 141.13 16.7313 141.13 16.19C141.13 15.8073 141.275 15.4853 141.564 15.224C141.863 14.9627 142.353 14.818 143.034 14.79L142.964 15.014C142.479 14.93 142.105 14.7713 141.844 14.538C141.592 14.2953 141.466 13.964 141.466 13.544C141.466 13.1147 141.629 12.7647 141.956 12.494C142.292 12.214 142.745 12.0507 143.314 12.004L144.154 12.396H143.958C143.557 12.424 143.272 12.508 143.104 12.648C142.945 12.7787 142.866 12.928 142.866 13.096C142.866 13.292 142.941 13.4413 143.09 13.544C143.249 13.6373 143.473 13.684 143.762 13.684H145.918ZM144.616 16.694C145.101 16.694 145.498 16.652 145.806 16.568C146.123 16.484 146.357 16.3767 146.506 16.246C146.665 16.1153 146.744 15.9707 146.744 15.812C146.744 15.6347 146.674 15.49 146.534 15.378C146.394 15.2753 146.142 15.224 145.778 15.224H143.412C143.188 15.224 143.001 15.28 142.852 15.392C142.712 15.504 142.642 15.658 142.642 15.854C142.642 16.1153 142.815 16.3207 143.16 16.47C143.515 16.6193 144 16.694 144.616 16.694ZM144.63 7.86C145.283 7.86 145.848 7.958 146.324 8.154C146.809 8.34067 147.178 8.61133 147.43 8.966C147.691 9.32067 147.822 9.74533 147.822 10.24C147.822 10.7253 147.691 11.1453 147.43 11.5C147.178 11.8547 146.809 12.13 146.324 12.326C145.848 12.5127 145.283 12.606 144.63 12.606C143.594 12.606 142.801 12.396 142.25 11.976C141.709 11.5467 141.438 10.968 141.438 10.24C141.438 9.74533 141.564 9.32067 141.816 8.966C142.077 8.61133 142.446 8.34067 142.922 8.154C143.398 7.958 143.967 7.86 144.63 7.86ZM144.63 9.064C144.257 9.064 143.949 9.16667 143.706 9.372C143.463 9.57733 143.342 9.862 143.342 10.226C143.342 10.59 143.463 10.8793 143.706 11.094C143.949 11.2993 144.257 11.402 144.63 11.402C145.003 11.402 145.307 11.2993 145.54 11.094C145.783 10.8793 145.904 10.59 145.904 10.226C145.904 9.862 145.783 9.57733 145.54 9.372C145.307 9.16667 145.003 9.064 144.63 9.064ZM149.36 15V8H151.082L151.194 10.1L150.956 9.876C151.068 9.41867 151.245 9.04067 151.488 8.742C151.73 8.44333 152.024 8.224 152.37 8.084C152.724 7.93467 153.112 7.86 153.532 7.86C154.017 7.86 154.446 7.95333 154.82 8.14C155.202 8.32667 155.501 8.61133 155.716 8.994C155.94 9.36733 156.052 9.83867 156.052 10.408V15H154.134V10.954C154.134 10.3567 154.017 9.946 153.784 9.722C153.55 9.48867 153.247 9.372 152.874 9.372C152.612 9.372 152.356 9.43733 152.104 9.568C151.861 9.68933 151.66 9.89 151.502 10.17C151.352 10.45 151.278 10.8233 151.278 11.29V15H149.36ZM166.325 5.62C167.239 5.62 168.028 5.81133 168.691 6.194C169.353 6.57667 169.862 7.12267 170.217 7.832C170.581 8.54133 170.763 9.39067 170.763 10.38C170.763 11.3693 170.581 12.2187 170.217 12.928C169.862 13.6373 169.353 14.1833 168.691 14.566C168.028 14.9487 167.239 15.14 166.325 15.14C165.41 15.14 164.617 14.9487 163.945 14.566C163.282 14.1833 162.769 13.6373 162.405 12.928C162.05 12.2187 161.873 11.3693 161.873 10.38C161.873 9.39067 162.05 8.54133 162.405 7.832C162.769 7.12267 163.282 6.57667 163.945 6.194C164.617 5.81133 165.41 5.62 166.325 5.62ZM166.325 7.202C165.802 7.202 165.359 7.32333 164.995 7.566C164.631 7.80867 164.351 8.168 164.155 8.644C163.968 9.11067 163.875 9.68933 163.875 10.38C163.875 11.0613 163.968 11.64 164.155 12.116C164.351 12.592 164.631 12.9513 164.995 13.194C165.359 13.4367 165.802 13.558 166.325 13.558C166.838 13.558 167.277 13.4367 167.641 13.194C168.005 12.9513 168.28 12.592 168.467 12.116C168.663 11.64 168.761 11.0613 168.761 10.38C168.761 9.68933 168.663 9.11067 168.467 8.644C168.28 8.168 168.005 7.80867 167.641 7.566C167.277 7.32333 166.838 7.202 166.325 7.202ZM174.868 15.14C174.401 15.14 173.981 15.056 173.608 14.888C173.234 14.72 172.936 14.454 172.712 14.09C172.497 13.7167 172.39 13.236 172.39 12.648V8H174.308V12.186C174.308 12.7273 174.42 13.1053 174.644 13.32C174.868 13.5253 175.19 13.628 175.61 13.628C175.806 13.628 175.997 13.5953 176.184 13.53C176.37 13.4553 176.534 13.3433 176.674 13.194C176.823 13.0447 176.94 12.8533 177.024 12.62C177.108 12.3773 177.15 12.0927 177.15 11.766V8H179.068V15H177.36L177.29 13.782C177.056 14.2487 176.734 14.594 176.324 14.818C175.922 15.0327 175.437 15.14 174.868 15.14ZM183.48 5.858V12.718C183.48 13.054 183.564 13.3013 183.732 13.46C183.909 13.6093 184.147 13.684 184.446 13.684C184.679 13.684 184.885 13.6513 185.062 13.586C185.239 13.5113 185.398 13.4133 185.538 13.292L185.846 14.566C185.622 14.7433 185.342 14.8833 185.006 14.986C184.67 15.0887 184.315 15.14 183.942 15.14C183.475 15.14 183.06 15.07 182.696 14.93C182.341 14.79 182.061 14.566 181.856 14.258C181.66 13.95 181.562 13.5393 181.562 13.026V6.39L183.48 5.858ZM185.72 8V9.428H180.274V8H185.72Z" fill="#F566A9"/>
<path d="M205 15.8333H201.519C200.519 15.8333 199.647 15.1526 199.405 14.1824C198.718 11.4364 198.718 8.56362 199.405 5.81764C199.647 4.84735 200.519 4.16667 201.519 4.16667L205 4.16667L205 2.5H201.519C199.754 2.5 198.216 3.70118 197.788 5.41341C197.035 8.4248 197.035 11.5752 197.788 14.5866C198.216 16.2988 199.754 17.5 201.519 17.5H205V15.8333Z" fill="#F566A9"/>
<path d="M211.218 7.35486L208.747 5.94313L207.92 7.3902L210.391 8.80194C210.478 8.85208 210.542 8.93588 210.566 9.03394C210.577 9.07805 210.588 9.1223 210.597 9.16667H202.5V10.8333H210.597C210.588 10.8777 210.577 10.922 210.566 10.9661C210.542 11.0641 210.478 11.1479 210.391 11.1981L207.92 12.6098L208.747 14.0569L211.218 12.6451C211.7 12.3696 212.049 11.9091 212.183 11.3703C212.408 10.4706 212.408 9.52939 212.183 8.62972C212.049 8.0909 211.7 7.63042 211.218 7.35486Z" fill="#F566A9"/>
</g>
<defs>
<clipPath id="clip0_306_2915">
<rect width="87" height="20" fill="white" transform="translate(128)"/>
</clipPath>
</defs>
</svg>
