<svg width="17" height="17" viewBox="0 0 17 17" fill="none" xmlns="http://www.w3.org/2000/svg">
<g clip-path="url(#clip0_803_2566)">
<path d="M8.13432 14.9127C11.878 14.9127 14.9129 11.8778 14.9129 8.13408C14.9129 4.39035 11.878 1.35547 8.13432 1.35547C4.3906 1.35547 1.35571 4.39035 1.35571 8.13408C1.35571 11.8778 4.3906 14.9127 8.13432 14.9127Z" stroke="#374151" stroke-width="1.62687" stroke-linecap="round" stroke-linejoin="round"/>
<path d="M6.16211 6.10045C6.32148 5.64742 6.63604 5.2654 7.05008 5.02207C7.46412 4.77873 7.95091 4.68978 8.42425 4.77097C8.89759 4.85216 9.32692 5.09825 9.6362 5.46566C9.94548 5.83306 10.1148 6.29807 10.114 6.77832C10.114 8.13404 8.08046 8.8119 8.08046 8.8119" stroke="#374151" stroke-width="1.62687" stroke-linecap="round" stroke-linejoin="round"/>
<path d="M8.13428 11.5234H8.14148" stroke="#374151" stroke-width="1.62687" stroke-linecap="round" stroke-linejoin="round"/>
</g>
<defs>
<clipPath id="clip0_803_2566">
<rect width="16.2687" height="16.2687" fill="white"/>
</clipPath>
</defs>
</svg>
