<svg width="87" height="93" viewBox="0 0 87 93" fill="none" xmlns="http://www.w3.org/2000/svg">
<g clip-path="url(#clip0_2002_837)" filter="url(#filter0_dd_2002_837)">
<path d="M39.2798 9.07161C41.755 7.64255 44.8046 7.64255 47.2798 9.07161L66.5596 20.2028C69.0348 21.6319 70.5596 24.2729 70.5596 27.131V49.3934C70.5596 52.2515 69.0348 54.8925 66.5596 56.3216L47.2798 67.4528C44.8046 68.8819 41.755 68.8819 39.2798 67.4528L20 56.3216C17.5248 54.8925 16 52.2515 16 49.3934V27.131C16 24.2729 17.5248 21.6319 20 20.2028L39.2798 9.07161Z" fill="#F97316"/>
<path d="M41.5488 15.3247C42.6228 14.7129 43.9397 14.7129 45.0137 15.3247L62.5137 25.2954C63.6062 25.9179 64.2811 27.079 64.2812 28.3364V48.188C64.2811 49.4454 63.6062 50.6065 62.5137 51.229L45.0137 61.1997C43.9397 61.8115 42.6228 61.8115 41.5488 61.1997L24.0488 51.229C22.9563 50.6065 22.2814 49.4454 22.2812 48.188V28.3364C22.2814 27.079 22.9563 25.9179 24.0488 25.2954L41.5488 15.3247Z" fill="#EA580C" stroke="url(#paint0_linear_2002_837)"/>
<g clip-path="url(#clip1_2002_837)" filter="url(#filter1_dd_2002_837)">
<g filter="url(#filter2_dd_2002_837)">
<path fill-rule="evenodd" clip-rule="evenodd" d="M47.2895 24.388C46.7232 23.8218 45.9115 23.576 45.1263 23.7331C42.9173 24.1749 41.1907 25.9015 40.7489 28.1104C40.5918 28.8957 40.8376 29.7074 41.4039 30.2737L45.3926 34.2624L39.2782 40.3768L35.2895 36.388C34.7232 35.8218 33.9115 35.576 33.1263 35.7331C30.9173 36.1749 29.1907 37.9015 28.7489 40.1104C28.5918 40.8957 28.8376 41.7074 29.4039 42.2737L30.7273 43.5971C30.656 43.665 30.5889 43.7323 30.5268 43.7948L30.4762 43.8455L29.7059 44.6158C28.9175 45.4042 28.6421 46.5705 28.9947 47.6283C29.7687 49.9501 31.5906 51.772 33.9123 52.5459C34.9702 52.8985 36.1364 52.6232 36.9249 51.8347L37.6951 51.0645L37.7459 51.0139C37.8083 50.9518 37.8758 50.8846 37.9436 50.8134L39.267 52.1368C39.8332 52.703 40.645 52.9488 41.4302 52.7918C43.6391 52.35 45.3658 50.6233 45.8076 48.4144C45.9646 47.6292 45.7188 46.8174 45.1526 46.2512L41.1639 42.2624L47.2782 36.148L51.267 40.1368C51.8332 40.703 52.645 40.9488 53.4302 40.7918C55.6391 40.35 57.3658 38.6233 57.8076 36.4144C57.9646 35.6292 57.7188 34.8174 57.1526 34.2512L55.8292 32.9278C55.9005 32.8599 55.9675 32.7925 56.0297 32.7301L56.0803 32.6793L56.8506 31.909C57.639 31.1206 57.9143 29.9543 57.5617 28.8965C56.7878 26.5747 54.9659 24.7528 52.6441 23.9789C51.5863 23.6263 50.4201 23.9016 49.6316 24.6901L48.8613 25.4604L48.8106 25.5109C48.7481 25.5731 48.6808 25.6401 48.6129 25.7114L47.2895 24.388ZM53.7005 30.799C53.8199 30.9185 53.886 30.9842 53.9361 31.0308L53.9449 31.0389L53.9537 31.0308C54.0045 30.9835 54.0718 30.9165 54.1947 30.7937L54.9649 30.0234C55.0392 29.9492 55.0651 29.8394 55.0319 29.7398C54.5234 28.2143 53.3264 27.0172 51.8009 26.5087C51.7013 26.4755 51.5915 26.5015 51.5172 26.5757L50.7469 27.346C50.6241 27.4688 50.5571 27.5361 50.5099 27.5869L50.5017 27.5957L50.5099 27.6046C50.5571 27.6554 50.6241 27.7227 50.7469 27.8455L53.7005 30.799ZM35.8202 48.69C35.9363 48.8061 36.0008 48.8709 36.0466 48.9203L36.0548 48.9291L36.0466 48.9379C35.9994 48.9887 35.9324 49.056 35.8095 49.1788L35.0392 49.9491C34.965 50.0234 34.8552 50.0493 34.7556 50.0161C33.2301 49.5076 32.0331 48.3105 31.5246 46.785C31.4914 46.6854 31.5173 46.5756 31.5915 46.5014L32.3618 45.7311C32.4847 45.6083 32.5519 45.5413 32.6027 45.494L32.6116 45.4859L32.6204 45.494C32.6712 45.5413 32.7385 45.6083 32.8613 45.7311L35.8202 48.69Z" fill="white"/>
<path fill-rule="evenodd" clip-rule="evenodd" d="M47.2895 24.388C46.7232 23.8218 45.9115 23.576 45.1263 23.7331C42.9173 24.1749 41.1907 25.9015 40.7489 28.1104C40.5918 28.8957 40.8376 29.7074 41.4039 30.2737L45.3926 34.2624L39.2782 40.3768L35.2895 36.388C34.7232 35.8218 33.9115 35.576 33.1263 35.7331C30.9173 36.1749 29.1907 37.9015 28.7489 40.1104C28.5918 40.8957 28.8376 41.7074 29.4039 42.2737L30.7273 43.5971C30.656 43.665 30.5889 43.7323 30.5268 43.7948L30.4762 43.8455L29.7059 44.6158C28.9175 45.4042 28.6421 46.5705 28.9947 47.6283C29.7687 49.9501 31.5906 51.772 33.9123 52.5459C34.9702 52.8985 36.1364 52.6232 36.9249 51.8347L37.6951 51.0645L37.7459 51.0139C37.8083 50.9518 37.8758 50.8846 37.9436 50.8134L39.267 52.1368C39.8332 52.703 40.645 52.9488 41.4302 52.7918C43.6391 52.35 45.3658 50.6233 45.8076 48.4144C45.9646 47.6292 45.7188 46.8174 45.1526 46.2512L41.1639 42.2624L47.2782 36.148L51.267 40.1368C51.8332 40.703 52.645 40.9488 53.4302 40.7918C55.6391 40.35 57.3658 38.6233 57.8076 36.4144C57.9646 35.6292 57.7188 34.8174 57.1526 34.2512L55.8292 32.9278C55.9005 32.8599 55.9675 32.7925 56.0297 32.7301L56.0803 32.6793L56.8506 31.909C57.639 31.1206 57.9143 29.9543 57.5617 28.8965C56.7878 26.5747 54.9659 24.7528 52.6441 23.9789C51.5863 23.6263 50.4201 23.9016 49.6316 24.6901L48.8613 25.4604L48.8106 25.5109C48.7481 25.5731 48.6808 25.6401 48.6129 25.7114L47.2895 24.388ZM53.7005 30.799C53.8199 30.9185 53.886 30.9842 53.9361 31.0308L53.9449 31.0389L53.9537 31.0308C54.0045 30.9835 54.0718 30.9165 54.1947 30.7937L54.9649 30.0234C55.0392 29.9492 55.0651 29.8394 55.0319 29.7398C54.5234 28.2143 53.3264 27.0172 51.8009 26.5087C51.7013 26.4755 51.5915 26.5015 51.5172 26.5757L50.7469 27.346C50.6241 27.4688 50.5571 27.5361 50.5099 27.5869L50.5017 27.5957L50.5099 27.6046C50.5571 27.6554 50.6241 27.7227 50.7469 27.8455L53.7005 30.799ZM35.8202 48.69C35.9363 48.8061 36.0008 48.8709 36.0466 48.9203L36.0548 48.9291L36.0466 48.9379C35.9994 48.9887 35.9324 49.056 35.8095 49.1788L35.0392 49.9491C34.965 50.0234 34.8552 50.0493 34.7556 50.0161C33.2301 49.5076 32.0331 48.3105 31.5246 46.785C31.4914 46.6854 31.5173 46.5756 31.5915 46.5014L32.3618 45.7311C32.4847 45.6083 32.5519 45.5413 32.6027 45.494L32.6116 45.4859L32.6204 45.494C32.6712 45.5413 32.7385 45.6083 32.8613 45.7311L35.8202 48.69Z" stroke="url(#paint1_linear_2002_837)" stroke-linejoin="round"/>
</g>
</g>
</g>
<defs>
<filter id="filter0_dd_2002_837" x="-4.71875" y="-1.73779" width="96" height="96" filterUnits="userSpaceOnUse" color-interpolation-filters="sRGB">
<feFlood flood-opacity="0" result="BackgroundImageFix"/>
<feColorMatrix in="SourceAlpha" type="matrix" values="0 0 0 0 0 0 0 0 0 0 0 0 0 0 0 0 0 0 127 0" result="hardAlpha"/>
<feOffset dy="8"/>
<feGaussianBlur stdDeviation="8"/>
<feColorMatrix type="matrix" values="0 0 0 0 0.0588235 0 0 0 0 0.0901961 0 0 0 0 0.164706 0 0 0 0.02 0"/>
<feBlend mode="normal" in2="BackgroundImageFix" result="effect1_dropShadow_2002_837"/>
<feColorMatrix in="SourceAlpha" type="matrix" values="0 0 0 0 0 0 0 0 0 0 0 0 0 0 0 0 0 0 127 0" result="hardAlpha"/>
<feOffset dy="4"/>
<feGaussianBlur stdDeviation="4"/>
<feColorMatrix type="matrix" values="0 0 0 0 0.0588235 0 0 0 0 0.0901961 0 0 0 0 0.164706 0 0 0 0.03 0"/>
<feBlend mode="normal" in2="effect1_dropShadow_2002_837" result="effect2_dropShadow_2002_837"/>
<feBlend mode="normal" in="SourceGraphic" in2="effect2_dropShadow_2002_837" result="shape"/>
</filter>
<filter id="filter1_dd_2002_837" x="15.2812" y="22.2622" width="56" height="56" filterUnits="userSpaceOnUse" color-interpolation-filters="sRGB">
<feFlood flood-opacity="0" result="BackgroundImageFix"/>
<feColorMatrix in="SourceAlpha" type="matrix" values="0 0 0 0 0 0 0 0 0 0 0 0 0 0 0 0 0 0 127 0" result="hardAlpha"/>
<feMorphology radius="2" operator="erode" in="SourceAlpha" result="effect1_dropShadow_2002_837"/>
<feOffset dy="4"/>
<feGaussianBlur stdDeviation="3"/>
<feColorMatrix type="matrix" values="0 0 0 0 0.109804 0 0 0 0 0.0980392 0 0 0 0 0.0901961 0 0 0 0.03 0"/>
<feBlend mode="normal" in2="BackgroundImageFix" result="effect1_dropShadow_2002_837"/>
<feColorMatrix in="SourceAlpha" type="matrix" values="0 0 0 0 0 0 0 0 0 0 0 0 0 0 0 0 0 0 127 0" result="hardAlpha"/>
<feMorphology radius="4" operator="erode" in="SourceAlpha" result="effect2_dropShadow_2002_837"/>
<feOffset dy="12"/>
<feGaussianBlur stdDeviation="8"/>
<feColorMatrix type="matrix" values="0 0 0 0 0.109804 0 0 0 0 0.0980392 0 0 0 0 0.0901961 0 0 0 0.08 0"/>
<feBlend mode="normal" in2="effect1_dropShadow_2002_837" result="effect2_dropShadow_2002_837"/>
<feBlend mode="normal" in="SourceGraphic" in2="effect2_dropShadow_2002_837" result="shape"/>
</filter>
<filter id="filter2_dd_2002_837" x="12.2024" y="15.1865" width="62.1517" height="62.1519" filterUnits="userSpaceOnUse" color-interpolation-filters="sRGB">
<feFlood flood-opacity="0" result="BackgroundImageFix"/>
<feColorMatrix in="SourceAlpha" type="matrix" values="0 0 0 0 0 0 0 0 0 0 0 0 0 0 0 0 0 0 127 0" result="hardAlpha"/>
<feOffset dy="8"/>
<feGaussianBlur stdDeviation="8"/>
<feColorMatrix type="matrix" values="0 0 0 0 0.0588235 0 0 0 0 0.0901961 0 0 0 0 0.164706 0 0 0 0.02 0"/>
<feBlend mode="normal" in2="BackgroundImageFix" result="effect1_dropShadow_2002_837"/>
<feColorMatrix in="SourceAlpha" type="matrix" values="0 0 0 0 0 0 0 0 0 0 0 0 0 0 0 0 0 0 127 0" result="hardAlpha"/>
<feOffset dy="4"/>
<feGaussianBlur stdDeviation="4"/>
<feColorMatrix type="matrix" values="0 0 0 0 0.0588235 0 0 0 0 0.0901961 0 0 0 0 0.164706 0 0 0 0.03 0"/>
<feBlend mode="normal" in2="effect1_dropShadow_2002_837" result="effect2_dropShadow_2002_837"/>
<feBlend mode="normal" in="SourceGraphic" in2="effect2_dropShadow_2002_837" result="shape"/>
</filter>
<linearGradient id="paint0_linear_2002_837" x1="43.2812" y1="13.7622" x2="43.2813" y2="62.7622" gradientUnits="userSpaceOnUse">
<stop stop-color="#F97316" stop-opacity="0"/>
<stop offset="1" stop-color="#F97316"/>
</linearGradient>
<linearGradient id="paint1_linear_2002_837" x1="43.2782" y1="23.6865" x2="43.2782" y2="52.8383" gradientUnits="userSpaceOnUse">
<stop stop-color="white"/>
<stop offset="1" stop-color="white" stop-opacity="0"/>
</linearGradient>
<clipPath id="clip0_2002_837">
<rect width="64" height="64" fill="white" transform="translate(11.2812 6.26221)"/>
</clipPath>
<clipPath id="clip1_2002_837">
<rect width="32" height="32" fill="white" transform="translate(27.2812 22.2622)"/>
</clipPath>
</defs>
</svg>
