<svg width="40" height="40" viewBox="0 0 40 40" fill="none" xmlns="http://www.w3.org/2000/svg">
<path d="M20 0.5C30.7696 0.5 39.5 9.23045 39.5 20C39.5 30.7696 30.7696 39.5 20 39.5C9.23045 39.5 0.5 30.7696 0.5 20C0.5 9.23045 9.23045 0.5 20 0.5Z" stroke="white" stroke-opacity="0.4"/>
<path d="M26 11.25H14C11.582 11.25 10.25 12.582 10.25 15V25C10.25 27.418 11.582 28.75 14 28.75H26C28.418 28.75 29.75 27.418 29.75 25V15C29.75 12.582 28.418 11.25 26 11.25ZM14 12.75H26C27.577 12.75 28.25 13.423 28.25 15V22.25L23.71 17.71C23.32 17.32 22.68 17.32 22.29 17.71L17.35 22.6499C17.16 22.8399 16.84 22.8399 16.65 22.6499L15.71 21.71C15.32 21.32 14.68 21.32 14.29 21.71L11.75 24.25V15C11.75 13.423 12.423 12.75 14 12.75ZM14.75 17C14.75 16.31 15.304 15.75 15.993 15.75H16.0031C16.6921 15.75 17.251 16.31 17.251 17C17.251 17.69 16.6931 18.25 16.0031 18.25C15.3141 18.25 14.75 17.69 14.75 17Z" fill="white"/>
</svg>
