<svg width="24" height="24" viewBox="0 0 24 24" fill="none" xmlns="http://www.w3.org/2000/svg">
<path fill-rule="evenodd" clip-rule="evenodd" d="M9.59353 1.74794C11.1556 1.22725 12.8444 1.22725 14.4065 1.74794C15.3095 2.04894 15.982 2.81073 16.1686 3.74411L16.4576 5.18888C16.5886 5.84395 16.6726 6.25683 16.7694 6.56347C16.8588 6.84679 16.9327 6.9474 16.9926 7.00731C17.0525 7.06721 17.1531 7.14109 17.4364 7.23051C17.743 7.32729 18.1559 7.41126 18.811 7.54227L20.2558 7.83122C21.1891 8.0179 21.9509 8.69039 22.2519 9.59341C22.7726 11.1555 22.7726 12.8443 22.2519 14.4063C21.9509 15.3094 21.1891 15.9818 20.2558 16.1685L18.811 16.4575C18.1559 16.5885 17.743 16.6725 17.4364 16.7692C17.1531 16.8587 17.0525 16.9325 16.9926 16.9924C16.9327 17.0523 16.8588 17.153 16.7694 17.4363C16.6726 17.7429 16.5886 18.1558 16.4576 18.8109L16.1686 20.2556C15.982 21.189 15.3095 21.9508 14.4065 22.2518C12.8444 22.7725 11.1556 22.7725 9.59353 22.2518C8.69051 21.9508 8.01802 21.189 7.83135 20.2556L7.54239 18.8109C7.41138 18.1558 7.32741 17.7429 7.23063 17.4363C7.14121 17.153 7.06734 17.0523 7.00743 16.9924C6.94752 16.9325 6.84691 16.8587 6.56359 16.7692C6.25695 16.6725 5.84407 16.5885 5.189 16.4575L3.74423 16.1685C2.81085 15.9818 2.04906 15.3094 1.74806 14.4063C1.22737 12.8443 1.22737 11.1555 1.74806 9.59341C2.04906 8.69039 2.81085 8.0179 3.74423 7.83122L5.189 7.54227C5.84407 7.41126 6.25695 7.32729 6.56359 7.23051C6.84691 7.14109 6.94752 7.06721 7.00743 7.00731C7.06734 6.9474 7.14121 6.84679 7.23063 6.56347C7.32741 6.25683 7.41138 5.84395 7.54239 5.18888L7.83135 3.74411C8.01802 2.81073 8.69051 2.04894 9.59353 1.74794ZM13.774 3.6453C12.6225 3.26146 11.3775 3.26146 10.226 3.6453C10.0039 3.71935 9.83843 3.90674 9.79251 4.13634L9.49389 5.62945C9.37544 6.22184 9.2713 6.74272 9.1379 7.16541C8.99352 7.62288 8.78993 8.05324 8.42164 8.42152C8.05336 8.7898 7.623 8.9934 7.16553 9.13778C6.74284 9.27118 6.22197 9.37532 5.62958 9.49376L4.13646 9.79239C3.90686 9.8383 3.71947 10.0037 3.64543 10.2259C3.26158 11.3774 3.26158 12.6224 3.64543 13.7739C3.71947 13.996 3.90686 14.1614 4.13646 14.2074L5.62956 14.506C6.22195 14.6244 6.74284 14.7286 7.16553 14.862C7.623 15.0064 8.05336 15.2099 8.42164 15.5782C8.78993 15.9465 8.99352 16.3769 9.1379 16.8343C9.2713 17.257 9.37544 17.7779 9.49389 18.3703L9.79251 19.8634C9.83843 20.093 10.0039 20.2804 10.226 20.3544C11.3775 20.7383 12.6225 20.7383 13.774 20.3544C13.9961 20.2804 14.1616 20.093 14.2075 19.8634L14.5061 18.3703C14.6245 17.7779 14.7287 17.257 14.8621 16.8343C15.0065 16.3769 15.2101 15.9465 15.5783 15.5782C15.9466 15.2099 16.377 15.0064 16.8345 14.862C17.2571 14.7286 17.778 14.6244 18.3704 14.506L19.8635 14.2074C20.0931 14.1614 20.2805 13.996 20.3546 13.7739C20.7384 12.6224 20.7384 11.3774 20.3546 10.2259C20.2805 10.0037 20.0931 9.8383 19.8635 9.79239L18.3704 9.49376C17.778 9.37532 17.2572 9.27118 16.8345 9.13778C16.377 8.9934 15.9466 8.7898 15.5783 8.42152C15.2101 8.05324 15.0065 7.62288 14.8621 7.16541C14.7287 6.74273 14.6246 6.22187 14.5061 5.6295L14.2075 4.13634C14.1616 3.90674 13.9961 3.71935 13.774 3.6453Z" fill="#A1A1AA"/>
</svg>
