<svg width="23" height="23" viewBox="0 0 23 23" fill="none" xmlns="http://www.w3.org/2000/svg">
<path d="M16.7914 12.1248H12.1272V16.789C12.1272 17.0364 12.029 17.2736 11.854 17.4486C11.6791 17.6235 11.4418 17.7218 11.1944 17.7218C10.947 17.7218 10.7097 17.6235 10.5348 17.4486C10.3598 17.2736 10.2616 17.0364 10.2616 16.789V12.1248H5.59739C5.34998 12.1248 5.11271 12.0265 4.93777 11.8516C4.76283 11.6766 4.66455 11.4394 4.66455 11.192C4.66455 10.9446 4.76283 10.7073 4.93777 10.5323C5.11271 10.3574 5.34998 10.2591 5.59739 10.2591H10.2616V5.59495C10.2616 5.34754 10.3598 5.11027 10.5348 4.93533C10.7097 4.76039 10.947 4.66211 11.1944 4.66211C11.4418 4.66211 11.6791 4.76039 11.854 4.93533C12.029 5.11027 12.1272 5.34754 12.1272 5.59495V10.2591H16.7914C17.0388 10.2591 17.2761 10.3574 17.451 10.5323C17.626 10.7073 17.7243 10.9446 17.7243 11.192C17.7243 11.4394 17.626 11.6766 17.451 11.8516C17.2761 12.0265 17.0388 12.1248 16.7914 12.1248Z" fill="black"/>
</svg>
