<svg width="24" height="24" viewBox="0 0 24 24" fill="none" xmlns="http://www.w3.org/2000/svg">
<path fill-rule="evenodd" clip-rule="evenodd" d="M15.8026 2.71359C13.334 1.89072 10.6651 1.89072 8.19652 2.71359C6.28734 3.34998 4.99958 5.13665 4.99958 7.1491V9.03157C4.99958 10.1309 4.99757 10.5911 4.93817 11.0366C4.87689 11.4962 4.77011 11.9485 4.6194 12.387C4.4733 12.812 4.26928 13.2245 3.77763 14.2078L3.46081 14.8415C3.19056 15.3818 2.94332 15.8761 2.80172 16.2923C2.65222 16.7318 2.53715 17.3133 2.83007 17.897C2.88301 18.0025 2.94518 18.1031 3.01586 18.1976C3.40694 18.7207 3.97857 18.8778 4.43845 18.9406C4.87405 19.0001 5.42676 19.0001 6.03086 19L8.127 19C8.30415 19.686 8.66203 20.3189 9.17157 20.8284C9.92172 21.5786 10.9391 22 12 22C13.0609 22 14.0783 21.5786 14.8284 20.8284C15.338 20.3189 15.6958 19.686 15.873 19L17.9683 19C18.5723 19.0001 19.1251 19.0001 19.5607 18.9407C20.0206 18.8778 20.5922 18.7207 20.9833 18.1977C21.054 18.1031 21.1162 18.0025 21.1691 17.897C21.462 17.3133 21.3469 16.7318 21.1974 16.2923C21.0558 15.8761 20.8086 15.3818 20.5384 14.8415L20.2215 14.2078C19.7299 13.2245 19.5259 12.812 19.3798 12.387C19.229 11.9485 19.1223 11.4962 19.061 11.0366C19.0016 10.5911 18.9996 10.1309 18.9996 9.03157V7.1491C18.9996 5.13665 17.7118 3.34998 15.8026 2.71359ZM8.82897 4.61095C10.887 3.92493 13.1121 3.92493 15.1702 4.61095C16.2627 4.97512 16.9996 5.99751 16.9996 7.1491L16.9996 9.10583C16.9995 10.1093 16.9995 10.7083 17.0785 11.301C17.1573 11.8918 17.2946 12.4734 17.4884 13.0371C17.6828 13.6026 17.9506 14.1383 18.3995 15.0358L18.7209 15.6786C19.0293 16.2956 19.2119 16.6657 19.304 16.9365L19.3106 16.9561L19.2901 16.959C19.0066 16.9978 18.594 17 17.9042 17H6.09494C5.40518 17 4.99252 16.9978 4.70907 16.959L4.68858 16.9561L4.69514 16.9365C4.78728 16.6657 4.96982 16.2956 5.27829 15.6786L5.5997 15.0358C6.04852 14.1383 6.3164 13.6026 6.51078 13.0371C6.70455 12.4734 6.84184 11.8918 6.92062 11.301C6.99966 10.7083 6.99963 10.1093 6.99958 9.10583L6.99958 7.1491C6.99958 5.99751 7.73648 4.97512 8.82897 4.61095ZM10.5858 19.4142C10.4611 19.2895 10.3546 19.1501 10.2679 19H13.7321C13.6454 19.1501 13.5389 19.2895 13.4142 19.4142C13.0391 19.7893 12.5304 20 12 20C11.4696 20 10.9609 19.7893 10.5858 19.4142Z" fill="#27272A"/>
</svg>
