<svg width="20" height="20" viewBox="0 0 20 20" fill="none" xmlns="http://www.w3.org/2000/svg">
<path fill-rule="evenodd" clip-rule="evenodd" d="M7.16841 1.42278C4.57047 2.50525 2.5054 4.57035 1.42292 7.16828C1.00115 8.18052 1.00114 9.31931 1.42291 10.3316C2.50538 12.9295 4.57044 14.9946 7.16838 16.077C8.18062 16.4988 9.3194 16.4988 10.3316 16.077C11.3691 15.6448 12.3215 15.0558 13.1604 14.3388L16.9107 18.0892L18.0892 16.9107L14.3389 13.1603C15.0559 12.3215 15.6449 11.369 16.0771 10.3315C16.4989 9.3193 16.4989 8.18054 16.0772 7.1683C14.9947 4.57033 12.9296 2.50525 10.3317 1.42277C9.31943 1.001 8.18065 1.001 7.16841 1.42278ZM2.96138 7.80931C3.87478 5.61717 5.6173 3.87463 7.80943 2.96124C8.41143 2.71041 9.08867 2.7104 9.69066 2.96123C11.8828 3.87463 13.6253 5.61715 14.5387 7.80931C14.7895 8.4113 14.7895 9.08853 14.5387 9.69051C13.6253 11.8827 11.8828 13.6252 9.69062 14.5386C9.08863 14.7894 8.41139 14.7894 7.80941 14.5386C5.61726 13.6252 3.87476 11.8827 2.96137 9.69054C2.71055 9.08855 2.71055 8.4113 2.96138 7.80931Z" fill="#52525B"/>
</svg>
