<svg width="40" height="40" viewBox="0 0 40 40" fill="none" xmlns="http://www.w3.org/2000/svg">
<path d="M20 0.5C30.7696 0.5 39.5 9.23045 39.5 20C39.5 30.7696 30.7696 39.5 20 39.5C9.23045 39.5 0.5 30.7696 0.5 20C0.5 9.23045 9.23045 0.5 20 0.5Z" stroke="#F4349D" stroke-opacity="0.4"/>
<path d="M20 10C14.477 10 10 14.477 10 20C10 25.523 14.477 30 20 30C25.523 30 30 25.523 30 20C30 14.477 25.523 10 20 10ZM20.75 24.5C20.75 24.914 20.414 25.25 20 25.25C19.586 25.25 19.25 24.914 19.25 24.5V19.929C19.25 19.515 19.586 19.179 20 19.179C20.414 19.179 20.75 19.515 20.75 19.929V24.5ZM20.02 17.5C19.468 17.5 19.0149 17.052 19.0149 16.5C19.0149 15.948 19.458 15.5 20.01 15.5H20.02C20.573 15.5 21.02 15.948 21.02 16.5C21.02 17.052 20.572 17.5 20.02 17.5Z" fill="#F4349D" fill-opacity="0.8"/>
</svg>
