<svg width="26" height="24" viewBox="0 0 26 24" fill="none" xmlns="http://www.w3.org/2000/svg">
<path d="M13 0C5.8201 0 0 5.3724 0 12C0 18.6276 5.8201 24 13 24C20.1799 24 26 18.6276 26 12C26 5.3724 20.1799 0 13 0ZM13.975 17.4C13.975 17.8968 13.5382 18.3 13 18.3C12.4618 18.3 12.025 17.8968 12.025 17.4V11.9147C12.025 11.4179 12.4618 11.0147 13 11.0147C13.5382 11.0147 13.975 11.4179 13.975 11.9147V17.4ZM13.026 9C12.3084 9 11.7194 8.4624 11.7194 7.8C11.7194 7.1376 12.2954 6.6 13.013 6.6H13.026C13.7449 6.6 14.326 7.1376 14.326 7.8C14.326 8.4624 13.7436 9 13.026 9Z" fill="#F4349D" fill-opacity="0.8"/>
</svg>
