<svg width="12" height="13" viewBox="0 0 12 13" fill="none" xmlns="http://www.w3.org/2000/svg">
<path fill-rule="evenodd" clip-rule="evenodd" d="M5.01782 0.376105C5.5193 -0.12537 6.33234 -0.125367 6.83382 0.376105L9.61636 3.15865C10.6533 4.19558 11.3601 5.51624 11.6477 6.9542L11.766 7.54557C11.8802 8.11681 11.8802 8.70502 11.766 9.27627C11.3991 11.1107 9.91521 12.5144 8.06321 12.779L7.36252 12.8791C6.40956 13.0152 5.44208 13.0152 4.48912 12.8791L3.78842 12.779C1.93643 12.5144 0.45258 11.1107 0.0856866 9.27627C-0.0285622 8.70502 -0.0285622 8.11681 0.0856866 7.54557L0.20396 6.9542C0.491552 5.51624 1.19835 4.19558 2.23528 3.15865L5.01782 0.376105ZM5.92582 1.35373L3.17809 4.10146C2.32729 4.95225 1.74737 6.03585 1.5114 7.21569L1.39313 7.80705C1.3134 8.20568 1.3134 8.61615 1.39313 9.01478C1.64915 10.2949 2.68462 11.2745 3.97699 11.4591L4.67768 11.5592C5.50557 11.6774 6.34607 11.6774 7.17396 11.5592L7.87465 11.4591C9.16702 11.2745 10.2025 10.2949 10.4585 9.01478C10.5382 8.61615 10.5382 8.20568 10.4585 7.80705L10.3402 7.21569C10.1043 6.03585 9.52435 4.95226 8.67355 4.10146L5.92582 1.35373Z" fill="#52525B"/>
</svg>
