<svg width="24" height="24" viewBox="0 0 24 24" fill="none" xmlns="http://www.w3.org/2000/svg">
<path fill-rule="evenodd" clip-rule="evenodd" d="M6.99964 8.011L6.99963 4.76634C6.99955 4.57351 6.99948 4.40607 7.01601 4.24844C7.13565 3.10797 7.89495 2.13547 8.97235 1.7428C9.12127 1.68853 9.28372 1.64799 9.47082 1.6013L9.53193 1.58603C9.81589 1.51504 9.9853 1.47268 10.1556 1.43703C11.3718 1.18245 12.6275 1.18245 13.8437 1.43703C14.014 1.47268 14.1834 1.51504 14.4674 1.58604L14.5285 1.6013C14.7156 1.64799 14.878 1.68853 15.0269 1.7428C16.1043 2.13547 16.8636 3.10797 16.9833 4.24844C16.9998 4.40606 16.9997 4.57349 16.9997 4.76631L16.9996 8.011C18.9837 8.14421 20.7082 9.46317 21.3439 11.3703C22.1292 13.7263 22.1292 16.2735 21.3439 18.6295C20.6729 20.6422 18.7893 21.9999 16.6677 21.9999H7.33161C5.20995 21.9999 3.32633 20.6422 2.65541 18.6295C1.87007 16.2735 1.87007 13.7263 2.65541 11.3703C3.29112 9.46317 5.01556 8.14421 6.99964 8.011ZM10.5654 3.3946C11.5113 3.19659 12.488 3.19659 13.4339 3.3946C13.5619 3.4214 13.6923 3.45381 14.0033 3.53158C14.253 3.594 14.3049 3.60836 14.3421 3.62189C14.7012 3.75278 14.9543 4.07695 14.9942 4.4571C14.9983 4.49642 14.9996 4.55028 14.9996 4.80765V7.99988H8.99964V4.80765C8.99964 4.55028 9.00097 4.49642 9.0051 4.4571C9.04498 4.07695 9.29808 3.75278 9.65721 3.62189C9.69435 3.60836 9.74628 3.594 9.99596 3.53158C10.307 3.45381 10.4374 3.4214 10.5654 3.3946ZM4.55277 12.0028C4.95147 10.8067 6.07082 9.99988 7.33161 9.99988H16.6677C17.9285 9.99988 19.0478 10.8067 19.4465 12.0028C20.095 13.9482 20.095 16.0515 19.4465 17.997C19.0478 19.1931 17.9285 19.9999 16.6677 19.9999H7.33161C6.07082 19.9999 4.95147 19.1931 4.55277 17.997C3.90428 16.0515 3.90428 13.9482 4.55277 12.0028Z" fill="#777EFF"/>
</svg>
