<svg width="25" height="24" viewBox="0 0 25 24" fill="none" xmlns="http://www.w3.org/2000/svg">
<path d="M4.625 3V10.8904C4.625 11.9835 5.32446 12.9539 6.36144 13.2996C6.77496 13.4374 7.19791 13.5365 7.625 13.5967L7.625 22H9.625L9.625 13.5967C10.0521 13.5365 10.475 13.4374 10.8886 13.2996C11.9255 12.9539 12.625 11.9835 12.625 10.8904V3H10.625V10.8904C10.625 11.1226 10.4764 11.3288 10.2561 11.4022C9.19734 11.7551 8.05266 11.7551 6.9939 11.4022C6.77359 11.3288 6.625 11.1226 6.625 10.8904V3H4.625Z" fill="#A1A1AA"/>
<path fill-rule="evenodd" clip-rule="evenodd" d="M13.625 4.8546C13.625 3.83033 14.4553 3 15.4796 3C17.7776 3 19.6919 4.76146 19.8828 7.05149L20.4458 13.8081C20.484 14.2651 20.5207 14.7051 20.5009 15.069C20.4786 15.4768 20.3803 15.9518 20.01 16.3542C19.6397 16.7567 19.1745 16.8941 18.7699 16.9502C18.409 17.0002 17.9674 17.0001 17.5089 17L15.625 17V22H13.625L13.625 4.8546ZM15.625 15H17.4514C17.9894 15 18.2887 14.9977 18.4955 14.9691L18.5034 14.968L18.5039 14.96C18.5152 14.7516 18.4926 14.4531 18.4479 13.917L17.8897 7.21758C17.7893 6.01276 16.8173 5.07524 15.625 5.00431L15.625 15Z" fill="#A1A1AA"/>
<path d="M7.625 3V10H9.625V3H7.625Z" fill="#A1A1AA"/>
</svg>
