<svg width="25" height="24" viewBox="0 0 25 24" fill="none" xmlns="http://www.w3.org/2000/svg">
<path fill-rule="evenodd" clip-rule="evenodd" d="M12.125 2C8.25901 2 5.125 5.13401 5.125 9C5.125 11.4059 6.33876 13.5283 8.18735 14.7883C7.03973 15.0164 5.90716 15.3451 4.80292 15.7745C3.18844 16.4024 2.125 17.957 2.125 19.6892V21H4.125V19.6892C4.125 18.7818 4.68208 17.9674 5.52781 17.6385C9.77115 15.9883 14.4789 15.9883 18.7222 17.6385C19.5679 17.9674 20.125 18.7818 20.125 19.6892V21H22.125V19.6892C22.125 17.957 21.0616 16.4024 19.4471 15.7745C18.3428 15.3451 17.2103 15.0164 16.0627 14.7883C17.9112 13.5283 19.125 11.4059 19.125 9C19.125 5.13401 15.991 2 12.125 2ZM7.125 9C7.125 6.23858 9.36358 4 12.125 4C14.8864 4 17.125 6.23858 17.125 9C17.125 11.7614 14.8864 14 12.125 14C9.36358 14 7.125 11.7614 7.125 9Z" fill="#A1A1AA"/>
</svg>
