<svg width="25" height="24" viewBox="0 0 25 24" fill="none" xmlns="http://www.w3.org/2000/svg">
<path fill-rule="evenodd" clip-rule="evenodd" d="M5.90041 3.86957C7.14375 3.2479 8.60723 3.2479 9.85057 3.86957C10.4787 4.18364 10.8755 4.82565 10.8755 5.52793V11.0001H14.8755V5.52793C14.8755 4.82565 15.2723 4.18364 15.9004 3.86957C17.1438 3.2479 18.6072 3.2479 19.8506 3.86957C20.4787 4.18364 20.8755 4.82565 20.8755 5.52793V8.00007L21.9823 8.00006C22.024 8.00004 22.0752 8.00001 22.1242 8.00237C23.029 8.04578 23.7916 8.69181 23.9831 9.57708C23.9935 9.62506 24.0019 9.6755 24.0087 9.71655L24.0118 9.73488C24.033 9.86251 24.0451 9.93519 24.0564 10.0075C24.2612 11.328 24.2612 12.6722 24.0564 13.9926C24.0452 14.0648 24.0331 14.1369 24.0119 14.2641L24.0118 14.2652L24.0087 14.2835C24.0019 14.3246 23.9935 14.375 23.9831 14.4231C23.7916 15.3083 23.029 15.9544 22.1242 15.9978C22.0752 16.0001 22.024 16.0001 21.9824 16.0001L20.8755 16.0001V18.4722C20.8755 19.1745 20.4787 19.8165 19.8506 20.1306C18.6072 20.7522 17.1438 20.7522 15.9004 20.1306C15.2723 19.8165 14.8755 19.1745 14.8755 18.4722V13.0001H10.8755V18.4722C10.8755 19.1745 10.4787 19.8165 9.85057 20.1306C8.60723 20.7522 7.14375 20.7522 5.90041 20.1306C5.27227 19.8165 4.87549 19.1745 4.87549 18.4722V16.0001L3.76864 16.0001C3.72701 16.0001 3.6758 16.0001 3.62675 15.9978C2.72202 15.9544 1.95942 15.3083 1.76786 14.4231C1.75747 14.3751 1.74909 14.3246 1.74227 14.2835L1.73922 14.2652C1.7179 14.1373 1.70586 14.065 1.69463 13.9926C1.48981 12.6722 1.48981 11.328 1.69463 10.0075C1.70585 9.93513 1.71789 9.86291 1.7392 9.73507L1.74226 9.71665C1.74908 9.67558 1.75747 9.6251 1.76786 9.57708C1.95942 8.69181 2.72202 8.04578 3.62675 8.00237C3.67583 8.00001 3.727 8.00004 3.76864 8.00006L4.87549 8.00007V5.52793C4.87549 4.82565 5.27227 4.18364 5.90041 3.86957ZM6.87549 5.61995V18.3802C7.51074 18.669 8.24024 18.669 8.87549 18.3802V5.61995C8.24024 5.33111 7.51074 5.33111 6.87549 5.61995ZM3.78042 14.0001H4.87549V10.0001H3.78042L3.72473 10.0002L3.72272 10.0002L3.72238 10.0022L3.71312 10.0571C3.6904 10.1934 3.6803 10.2541 3.67099 10.3141C3.49769 11.4314 3.49769 12.5688 3.67099 13.6861C3.6803 13.7461 3.6904 13.8068 3.71312 13.9431L3.72238 13.998L3.72272 13.9999L3.72473 14L3.78042 14.0001ZM16.8755 18.3802V5.61995C17.5107 5.33111 18.2402 5.33111 18.8755 5.61995V18.3802C18.2402 18.669 17.5107 18.669 16.8755 18.3802ZM21.9706 14.0001H20.8755V10.0001H21.9706L22.0263 10.0002L22.0283 10.0002L22.0286 10.0022L22.0379 10.0571C22.0606 10.1934 22.0707 10.2541 22.08 10.3141C22.2533 11.4314 22.2533 12.5688 22.08 13.6861C22.0707 13.7461 22.0606 13.8068 22.0379 13.9431L22.0286 13.998L22.0283 13.9999L22.0263 14L21.9706 14.0001Z" fill="#A1A1AA"/>
</svg>
