<svg width="40" height="40" viewBox="0 0 40 40" fill="none" xmlns="http://www.w3.org/2000/svg">
<path d="M20 0.5C30.7696 0.5 39.5 9.23045 39.5 20C39.5 30.7696 30.7696 39.5 20 39.5C9.23045 39.5 0.5 30.7696 0.5 20C0.5 9.23045 9.23045 0.5 20 0.5Z" stroke="#F4349D" stroke-opacity="0.4"/>
<path d="M27.5 12.5399V23.5089C27.5 23.5119 27.498 23.514 27.498 23.517C27.489 25.164 26.148 26.5009 24.5 26.5009C22.846 26.5009 21.5 25.1549 21.5 23.5009C21.5 21.8469 22.846 20.5009 24.5 20.5009C25.271 20.5009 25.968 20.8019 26.5 21.2809V16.1398L16.5 18.9398V26.4999C16.5 28.1539 15.154 29.4999 13.5 29.4999C11.846 29.4999 10.5 28.1539 10.5 26.4999C10.5 24.8459 11.846 23.4999 13.5 23.4999C14.271 23.4999 14.968 23.8009 15.5 24.2799V15.1579C15.5 13.9209 16.131 13.091 17.324 12.756L24.96 10.6168C25.712 10.4058 26.352 10.4778 26.812 10.8268C27.269 11.1738 27.5 11.7499 27.5 12.5399Z" fill="#F4349D" fill-opacity="0.8"/>
</svg>
