<svg width="64" height="64" viewBox="0 0 64 64" fill="none" xmlns="http://www.w3.org/2000/svg">
<path d="M32 0.5C49.397 0.5 63.5 14.603 63.5 32C63.5 49.397 49.397 63.5 32 63.5C14.603 63.5 0.5 49.397 0.5 32C0.5 14.603 14.603 0.5 32 0.5Z" stroke="#F4349D" stroke-opacity="0.4"/>
<path d="M26.5581 19.936L37.2495 23.6369C37.6103 23.7618 37.859 23.8478 38.0919 23.9488C38.8033 24.2572 39.4468 24.6834 39.9999 25.2021V19.9999L42.6666 19.9999V43.9999H39.9999V38.7978C39.4468 39.3164 38.8033 39.7426 38.0919 40.0511C37.859 40.1521 37.6104 40.2381 37.2496 40.3629L26.5581 44.0638C25.8242 44.318 25.1402 44.5549 24.5697 44.6631C23.9474 44.7811 23.1657 44.807 22.4532 44.2997C21.7407 43.7923 21.5095 43.0451 21.4174 42.4185C21.333 41.844 21.3331 41.1201 21.3333 40.3435V23.6564C21.3331 22.8798 21.333 22.1559 21.4174 21.5814C21.5095 20.9547 21.7407 20.2075 22.4532 19.7002C23.1657 19.1928 23.9474 19.2188 24.5697 19.3368C25.1402 19.445 25.8242 19.6819 26.5581 19.936Z" fill="#F4349D"/>
</svg>
