<svg width="345" height="14" viewBox="0 0 345 14" fill="none" xmlns="http://www.w3.org/2000/svg">
<path d="M1 7L148.5 7.00001" stroke="#D4D4D8" stroke-linecap="round" stroke-linejoin="round"/>
<path d="M168.512 3.3C169.198 3.3 169.785 3.43667 170.272 3.71C170.765 3.97667 171.142 4.36333 171.402 4.87C171.668 5.37667 171.802 5.98667 171.802 6.7C171.802 7.41333 171.668 8.02333 171.402 8.53C171.142 9.03667 170.765 9.42667 170.272 9.7C169.785 9.96667 169.198 10.1 168.512 10.1C167.832 10.1 167.242 9.96667 166.742 9.7C166.248 9.42667 165.868 9.03667 165.602 8.53C165.335 8.02333 165.202 7.41333 165.202 6.7C165.202 5.98667 165.335 5.37667 165.602 4.87C165.868 4.36333 166.248 3.97667 166.742 3.71C167.242 3.43667 167.832 3.3 168.512 3.3ZM168.512 4.86C168.238 4.86 168.012 4.93 167.832 5.07C167.658 5.20333 167.525 5.40333 167.432 5.67C167.345 5.93667 167.302 6.28 167.302 6.7C167.302 7.11333 167.345 7.45667 167.432 7.73C167.525 7.99667 167.658 8.2 167.832 8.34C168.012 8.47333 168.238 8.54 168.512 8.54C168.778 8.54 169.002 8.47333 169.182 8.34C169.362 8.2 169.495 7.99667 169.582 7.73C169.668 7.45667 169.712 7.11333 169.712 6.7C169.712 6.28 169.668 5.93667 169.582 5.67C169.495 5.40333 169.362 5.20333 169.182 5.07C169.002 4.93 168.778 4.86 168.512 4.86ZM177.166 3.4C177.986 3.4 178.619 3.59 179.066 3.97C179.519 4.34333 179.746 4.84333 179.746 5.47C179.746 6.17 179.526 6.7 179.086 7.06C178.646 7.42 178.012 7.6 177.186 7.6L176.986 7.71H175.786V10H173.786V3.4H177.166ZM176.836 6.32C177.122 6.32 177.336 6.26667 177.476 6.16C177.622 6.04667 177.696 5.86333 177.696 5.61C177.696 5.35667 177.622 5.17333 177.476 5.06C177.336 4.94667 177.122 4.89 176.836 4.89H175.786V6.32H176.836ZM178.046 6.75L180.126 10H177.896L176.286 7.11L178.046 6.75Z" fill="#52525B"/>
<path d="M196.5 7H344" stroke="#D4D4D8" stroke-linecap="round" stroke-linejoin="round"/>
</svg>
