<svg width="80" height="80" viewBox="0 0 80 80" fill="none" xmlns="http://www.w3.org/2000/svg">
<path d="M0 40C0 17.9086 17.9086 0 40 0C62.0914 0 80 17.9086 80 40C80 62.0914 62.0914 80 40 80C17.9086 80 0 62.0914 0 40Z" fill="#F566A9"/>
<path d="M35.7826 24.5179C33.6753 23.675 31.3244 23.675 29.2171 24.5179C27.6766 25.1341 26.6665 26.6261 26.6665 28.2852V51.7146C26.6665 53.3737 27.6766 54.8657 29.2171 55.4818C31.3244 56.3248 33.6753 56.3248 35.7826 55.4818C37.3231 54.8657 38.3332 53.3737 38.3332 51.7146V28.2852C38.3332 26.6261 37.3231 25.1341 35.7826 24.5179Z" fill="white"/>
<path d="M50.7826 24.5179C48.6753 23.675 46.3244 23.675 44.2171 24.5179C42.6766 25.1341 41.6665 26.6261 41.6665 28.2852V51.7146C41.6665 53.3737 42.6766 54.8657 44.2171 55.4818C46.3244 56.3248 48.6753 56.3248 50.7826 55.4818C52.3231 54.8657 53.3332 53.3737 53.3332 51.7146V28.2852C53.3332 26.6261 52.3231 25.1341 50.7826 24.5179Z" fill="white"/>
</svg>
