<svg width="64" height="64" viewBox="0 0 64 64" fill="none" xmlns="http://www.w3.org/2000/svg">
<path d="M32 0.5C49.397 0.5 63.5 14.603 63.5 32C63.5 49.397 49.397 63.5 32 63.5C14.603 63.5 0.5 49.397 0.5 32C0.5 14.603 14.603 0.5 32 0.5Z" stroke="#F4349D" stroke-opacity="0.4"/>
<path d="M37.4418 19.936L26.7503 23.6369C26.3895 23.7618 26.1409 23.8478 25.908 23.9488C25.1965 24.2572 24.553 24.6834 23.9999 25.2021L23.9999 19.9999L21.3333 19.9999V43.9999H23.9999L23.9999 38.7978C24.553 39.3164 25.1965 39.7426 25.908 40.0511C26.1409 40.1521 26.3895 40.2381 26.7503 40.3629L37.4417 44.0638C38.1756 44.318 38.8597 44.5549 39.4302 44.6631C40.0524 44.7811 40.8342 44.807 41.5467 44.2997C42.2592 43.7923 42.4904 43.0451 42.5824 42.4185C42.6668 41.844 42.6667 41.1201 42.6666 40.3435V23.6564C42.6667 22.8798 42.6668 22.1559 42.5824 21.5814C42.4904 20.9547 42.2592 20.2075 41.5467 19.7002C40.8342 19.1928 40.0524 19.2188 39.4302 19.3368C38.8597 19.445 38.1756 19.6819 37.4418 19.936Z" fill="#F4349D"/>
</svg>
