<svg width="24" height="24" viewBox="0 0 24 24" fill="none" xmlns="http://www.w3.org/2000/svg">
<path d="M13.8651 8.67603C12.6541 8.27238 11.3448 8.27238 10.1339 8.67603L9.98455 8.72581C9.8621 8.76663 9.76601 8.86271 9.72519 8.98516C9.63167 9.26573 9.65344 9.57196 9.7857 9.83648L9.89389 10.0529L8.10504 10.9473L7.99684 10.7309C7.62736 9.99195 7.56657 9.13649 7.82783 8.35271C8.06771 7.63305 8.63243 7.06833 9.35209 6.82844L9.50142 6.77867C11.1229 6.23817 12.876 6.23817 14.4975 6.77867L14.8788 6.90576C15.3729 7.07047 15.7981 7.39518 16.087 7.82857C16.7618 8.84075 16.7618 10.1594 16.087 11.1716C15.7981 11.605 15.3729 11.9297 14.8788 12.0944L13.3487 12.6044C13.1705 12.6638 13.0775 12.6952 13.0113 12.7217L13.0045 12.7245L13.004 12.7318C12.9999 12.803 12.9995 12.9012 12.9995 13.089V14.0001H10.9995V13.089L10.9993 13.014C10.9983 12.7439 10.997 12.4064 11.1003 12.0937C11.2291 11.7038 11.4747 11.363 11.8039 11.1175C12.068 10.9206 12.3885 10.8151 12.645 10.7306L12.7162 10.7071L14.2463 10.197C14.3185 10.173 14.3807 10.1255 14.4229 10.0622C14.6498 9.7218 14.6498 9.27835 14.4229 8.93797C14.3807 8.87464 14.3185 8.8272 14.2463 8.80313L13.8651 8.67603Z" fill="#777EFF"/>
<path d="M11.1432 15.4287C11.0505 15.475 10.9753 15.5502 10.9289 15.6429C10.6591 16.1825 10.6591 16.8176 10.9289 17.3572C10.9753 17.45 11.0505 17.5252 11.1432 17.5715C11.6828 17.8413 12.3179 17.8413 12.8575 17.5715C12.9502 17.5252 13.0254 17.45 13.0718 17.3572C13.3416 16.8176 13.3416 16.1825 13.0718 15.6429C13.0254 15.5502 12.9502 15.475 12.8575 15.4287C12.3179 15.1589 11.6828 15.1589 11.1432 15.4287Z" fill="#777EFF"/>
<path fill-rule="evenodd" clip-rule="evenodd" d="M2 12C2 6.47715 6.47715 2 12 2C17.5228 2 22 6.47715 22 12C22 17.5228 17.5228 22 12 22C6.47715 22 2 17.5228 2 12ZM12 4C7.58172 4 4 7.58172 4 12C4 16.4183 7.58172 20 12 20C16.4183 20 20 16.4183 20 12C20 7.58172 16.4183 4 12 4Z" fill="#777EFF"/>
</svg>
