<svg width="24" height="24" viewBox="0 0 24 24" fill="none" xmlns="http://www.w3.org/2000/svg">
<path d="M9.52405 4.51479C11.1476 4.19008 12.8372 4.18679 14.4579 4.51092L15.3208 4.68351C15.8648 4.7923 16.3024 5.19586 16.4548 5.72924C16.7854 6.88637 16.7854 8.11296 16.4548 9.2701L16.4031 9.45111C16.2585 9.95714 15.8878 10.3678 15.3992 10.5632L13.5394 11.307C12.9156 11.5554 12.3672 11.7738 11.9516 12.1625C11.6233 12.4695 11.3682 12.8463 11.2051 13.265C10.9986 13.7953 10.9995 14.3856 11.0005 15.057L11.0006 15.9997H13.0006V15.1987C13.0006 14.3016 13.017 14.1237 13.0688 13.9908C13.1232 13.8512 13.2082 13.7257 13.3176 13.6233C13.4218 13.5259 13.5809 13.4446 14.4138 13.1114L16.142 12.4202C17.2051 11.9949 18.0115 11.1015 18.3261 10.0005L18.3778 9.81954C18.811 8.3033 18.811 6.69604 18.3778 5.1798C18.0197 3.92636 16.9913 2.97801 15.7131 2.72235L14.8501 2.54976C12.9676 2.17327 11.0114 2.17771 9.13182 2.55363C7.33736 2.91252 5.93794 4.36739 5.67745 6.19082C5.54582 7.11224 5.63052 8.05165 5.92486 8.93466L6.05194 9.3159L7.9493 8.68344L7.82222 8.3022C7.62607 7.71375 7.56962 7.08771 7.65735 6.47367C7.79623 5.50147 8.54935 4.70973 9.52405 4.51479Z" fill="#27272A"/>
<path d="M10.9097 17.8633C10.6522 17.9491 10.4501 18.1512 10.3643 18.4088C10.1282 19.1169 10.1282 19.8825 10.3643 20.5906C10.4501 20.8481 10.6522 21.0502 10.9097 21.136C11.6178 21.3721 12.3834 21.3721 13.0915 21.136C13.3491 21.0502 13.5511 20.8481 13.637 20.5906C13.873 19.8825 13.873 19.1169 13.637 18.4088C13.5511 18.1512 13.3491 17.9491 13.0915 17.8633C12.3834 17.6273 11.6178 17.6273 10.9097 17.8633Z" fill="#27272A"/>
</svg>
