<svg width="24" height="24" viewBox="0 0 24 24" fill="none" xmlns="http://www.w3.org/2000/svg">
<path fill-rule="evenodd" clip-rule="evenodd" d="M4.94561 6.00001C4.52154 5.99992 4.10941 5.99984 3.76949 6.04554C3.38629 6.09706 2.94902 6.22259 2.5858 6.5858C2.22259 6.94902 2.09706 7.38629 2.04554 7.76949C1.99984 8.10941 1.99992 8.52154 2.00001 8.94561V15.0544C1.99992 15.4785 1.99984 15.8906 2.04554 16.2305C2.09706 16.6137 2.22259 17.051 2.5858 17.4142C2.94902 17.7774 3.38629 17.903 3.76949 17.9545C4.1094 18.0002 4.52151 18.0001 4.94557 18H19.0544C19.4785 18.0001 19.8906 18.0002 20.2305 17.9545C20.6137 17.903 21.051 17.7774 21.4142 17.4142C21.7774 17.051 21.903 16.6137 21.9545 16.2305C22.0002 15.8906 22.0001 15.4785 22 15.0544V8.94562C22.0001 8.52155 22.0002 8.10941 21.9545 7.76949C21.903 7.38629 21.7774 6.94902 21.4142 6.5858C21.051 6.22259 20.6137 6.09706 20.2305 6.04554C19.8906 5.99984 19.4785 5.99992 19.0544 6.00001H4.94561ZM4.02771 8.03599L4.02871 8.02871L4.03599 8.02771C4.22618 8.00214 4.50034 8.00001 5.00001 8.00001H7.00001V12H9.00001V8.00001H11V12H13V8.00001H15V12H17V8.00001H19C19.4997 8.00001 19.7738 8.00214 19.964 8.02771L19.9713 8.02871L19.9723 8.03599C19.9979 8.22618 20 8.50034 20 9.00001V15C20 15.4997 19.9979 15.7738 19.9723 15.964L19.9713 15.9713L19.964 15.9723C19.7738 15.9979 19.4997 16 19 16H5.00001C4.50034 16 4.22618 15.9979 4.03599 15.9723L4.02871 15.9713L4.02771 15.964C4.00214 15.7738 4.00001 15.4997 4.00001 15V9.00001C4.00001 8.50034 4.00214 8.22618 4.02771 8.03599Z" fill="#777EFF"/>
</svg>
