<svg width="24" height="24" viewBox="0 0 24 24" fill="none" xmlns="http://www.w3.org/2000/svg">
<path fill-rule="evenodd" clip-rule="evenodd" d="M13.0684 3.17774C13.5606 2.94529 14.2483 2.73375 14.9428 3.10543C15.6372 3.4771 15.8427 4.16661 15.9223 4.70507C15.9992 5.22545 15.9991 5.90448 15.999 6.66312V17.3374C15.9991 18.096 15.9992 18.7751 15.9223 19.2954C15.8427 19.8339 15.6372 20.5234 14.9428 20.8951C14.2483 21.2668 13.5606 21.0552 13.0684 20.8228C12.5928 20.5981 12.0278 20.2214 11.3966 19.8005L9.82192 18.7507C9.10289 18.2713 8.85587 18.1124 8.59272 18.0061C8.32957 17.8997 8.04143 17.8425 7.19121 17.688L4.30959 17.164C3.32076 16.9842 2.52875 16.2422 2.28499 15.2672C1.74875 13.1222 1.74875 10.8783 2.28499 8.73336C2.52875 7.75832 3.32075 7.01628 4.30959 6.83649L7.19121 6.31256C8.04143 6.15797 8.32957 6.10077 8.59272 5.99447C8.85587 5.88816 9.10289 5.72917 9.82192 5.24982L11.3966 4.2C12.0278 3.77911 12.5928 3.40239 13.0684 3.17774ZM13.9226 4.98619C13.5972 5.13983 13.157 5.43015 12.4443 5.90524L10.8526 6.96641C10.2417 7.37387 9.81803 7.6565 9.34185 7.84887C8.86568 8.04123 8.36454 8.13222 7.64207 8.26339L4.66736 8.80423C4.45144 8.84349 4.2785 9.00552 4.22527 9.21843C3.76866 11.0449 3.76866 12.9556 4.22527 14.7821C4.2785 14.995 4.45144 15.157 4.66737 15.1963L7.64205 15.7371C8.36453 15.8683 8.86567 15.9593 9.34185 16.1517C9.81803 16.344 10.2418 16.6266 10.8526 17.0341L12.4443 18.0953C13.157 18.5704 13.5972 18.8607 13.9226 19.0143L13.9408 19.0228L13.9438 19.003C13.9964 18.6471 13.999 18.1197 13.999 17.2632V6.73729C13.999 5.8808 13.9964 5.35344 13.9438 4.99755L13.9407 4.97769L13.9226 4.98619Z" fill="#777EFF"/>
<path d="M16.999 15.0003V9.00026H18.999V15.0003L16.999 15.0003Z" fill="#777EFF"/>
<path d="M19.999 6.00026V18.0003H21.999V6.00026H19.999Z" fill="#777EFF"/>
</svg>
