<svg width="164" height="25" viewBox="0 0 164 25" fill="none" xmlns="http://www.w3.org/2000/svg">
<path d="M0.422162 24.7207C0.304895 24.7207 0.199354 24.6858 0.10554 24.6159C0.0351801 24.5228 0 24.4181 0 24.3017V0.698323C0 0.581936 0.0351801 0.488826 0.10554 0.418993C0.199354 0.325883 0.304895 0.279328 0.422162 0.279328H6.78977C8.92403 0.279328 10.6361 0.896181 11.9261 2.12989C13.216 3.36359 13.861 5.00465 13.861 7.05307V17.9469C13.861 19.9953 13.216 21.6364 11.9261 22.8701C10.6361 24.1038 8.92403 24.7207 6.78977 24.7207H0.422162ZM4.9604 20.3212C4.9604 20.4376 5.01904 20.4958 5.1363 20.4958L6.71941 20.4609C7.35265 20.4376 7.86863 20.1699 8.26734 19.6578C8.66605 19.1457 8.87713 18.4707 8.90058 17.6327V7.36732C8.90058 6.48277 8.70123 5.78445 8.30252 5.27235C7.90381 4.76024 7.36438 4.50419 6.68423 4.50419H5.1363C5.01904 4.50419 4.9604 4.56238 4.9604 4.67877V20.3212Z" fill="#F566A9"/>
<path d="M23.4858 25C21.3281 25 19.6042 24.3715 18.3143 23.1145C17.0244 21.8575 16.3794 20.1816 16.3794 18.0866V6.91341C16.3794 4.81843 17.0244 3.14246 18.3143 1.88547C19.6042 0.628491 21.3281 0 23.4858 0C25.6435 0 27.3673 0.628491 28.6573 1.88547C29.9707 3.14246 30.6273 4.81843 30.6273 6.91341V18.0866C30.6273 20.1816 29.9707 21.8575 28.6573 23.1145C27.3673 24.3715 25.6435 25 23.4858 25ZM23.4858 20.7751C24.1425 20.7751 24.6702 20.554 25.0689 20.1117C25.4676 19.6462 25.6669 19.041 25.6669 18.2961V6.70391C25.6669 5.95903 25.4676 5.36546 25.0689 4.92318C24.6702 4.45763 24.1425 4.22486 23.4858 4.22486C22.8291 4.22486 22.3014 4.45763 21.9027 4.92318C21.5274 5.36546 21.3398 5.95903 21.3398 6.70391V18.2961C21.3398 19.041 21.5274 19.6462 21.9027 20.1117C22.3014 20.554 22.8291 20.7751 23.4858 20.7751Z" fill="#F566A9"/>
<path d="M33.7815 24.7207C33.6642 24.7207 33.5587 24.6858 33.4648 24.6159C33.3945 24.5228 33.3593 24.4181 33.3593 24.3017V0.698323C33.3593 0.581936 33.3945 0.488826 33.4648 0.418993C33.5587 0.325883 33.6642 0.279328 33.7815 0.279328H37.8975C38.0148 0.279328 38.1086 0.325883 38.179 0.418993C38.2728 0.488826 38.3197 0.581936 38.3197 0.698323V20.3212C38.3197 20.4376 38.3783 20.4958 38.4956 20.4958H45.8834C46.0007 20.4958 46.0945 20.5424 46.1649 20.6355C46.2587 20.7053 46.3056 20.7984 46.3056 20.9148V24.3017C46.3056 24.4181 46.2587 24.5228 46.1649 24.6159C46.0945 24.6858 46.0007 24.7207 45.8834 24.7207H33.7815Z" fill="#F566A9"/>
<path d="M54.85 25C52.7392 25 51.0388 24.3831 49.7489 23.1494C48.4824 21.8925 47.8491 20.2165 47.8491 18.1215V6.80866C47.8491 4.73696 48.4824 3.08426 49.7489 1.85056C51.0388 0.616853 52.7392 0 54.85 0C56.9842 0 58.6846 0.616853 59.9511 1.85056C61.2411 3.08426 61.886 4.73696 61.886 6.80866V7.19274C61.886 7.30912 61.8391 7.41387 61.7453 7.50698C61.6749 7.57682 61.5811 7.61173 61.4639 7.61173L57.3478 7.78631C57.0663 7.78631 56.9256 7.65829 56.9256 7.40223V6.49441C56.9256 5.81937 56.738 5.27235 56.3627 4.85335C55.9875 4.43436 55.4832 4.22486 54.85 4.22486C54.2402 4.22486 53.7477 4.43436 53.3724 4.85335C52.9972 5.27235 52.8095 5.81937 52.8095 6.49441V18.5405C52.8095 19.2155 52.9972 19.7626 53.3724 20.1816C53.7477 20.5773 54.2402 20.7751 54.85 20.7751C55.4832 20.7751 55.9875 20.5773 56.3627 20.1816C56.738 19.7626 56.9256 19.2155 56.9256 18.5405V17.5978C56.9256 17.4814 56.9608 17.3883 57.0312 17.3184C57.125 17.2253 57.2305 17.1788 57.3478 17.1788L61.4639 17.3534C61.5811 17.3534 61.6749 17.3999 61.7453 17.493C61.8391 17.5628 61.886 17.656 61.886 17.7723V18.1215C61.886 20.2165 61.2411 21.8925 59.9511 23.1494C58.6612 24.3831 56.9608 25 54.85 25Z" fill="#F566A9"/>
<path d="M77.431 4.0852C77.431 4.20158 77.3841 4.30633 77.2903 4.39944C77.2199 4.46927 77.1261 4.50419 77.0088 4.50419H69.6562C69.5389 4.50419 69.4803 4.56238 69.4803 4.67877V10.1955C69.4803 10.3119 69.5389 10.3701 69.6562 10.3701H73.8778C73.995 10.3701 74.0889 10.4167 74.1592 10.5098C74.253 10.5796 74.2999 10.6727 74.2999 10.7891V14.176C74.2999 14.2924 74.253 14.3971 74.1592 14.4902C74.0889 14.5601 73.995 14.595 73.8778 14.595H69.6562C69.5389 14.595 69.4803 14.6532 69.4803 14.7696V20.3212C69.4803 20.4376 69.5389 20.4958 69.6562 20.4958H77.0088C77.1261 20.4958 77.2199 20.5424 77.2903 20.6355C77.3841 20.7053 77.431 20.7984 77.431 20.9148V24.3017C77.431 24.4181 77.3841 24.5228 77.2903 24.6159C77.2199 24.6858 77.1261 24.7207 77.0088 24.7207H64.942C64.8248 24.7207 64.7192 24.6858 64.6254 24.6159C64.555 24.5228 64.5199 24.4181 64.5199 24.3017V0.698323C64.5199 0.581936 64.555 0.488826 64.6254 0.418993C64.7192 0.325883 64.8248 0.279328 64.942 0.279328H77.0088C77.1261 0.279328 77.2199 0.325883 77.2903 0.418993C77.3841 0.488826 77.431 0.581936 77.431 0.698323V4.0852Z" fill="#F566A9"/>
<path d="M96.6982 24.7207C96.4402 24.7207 96.276 24.6043 96.2056 24.3715L93.4968 14.7346C93.4499 14.6415 93.3912 14.595 93.3209 14.595H92.1247C92.0075 14.595 91.9488 14.6532 91.9488 14.7696V24.3017C91.9488 24.4181 91.9019 24.5228 91.8081 24.6159C91.7378 24.6858 91.6439 24.7207 91.5267 24.7207H87.4106C87.2933 24.7207 87.1878 24.6858 87.094 24.6159C87.0236 24.5228 86.9884 24.4181 86.9884 24.3017V0.698323C86.9884 0.581936 87.0236 0.488826 87.094 0.418993C87.1878 0.325883 87.2933 0.279328 87.4106 0.279328H94.517C95.8069 0.279328 96.9561 0.593574 97.9646 1.22207C98.9731 1.82728 99.7471 2.68855 100.287 3.80586C100.849 4.92318 101.131 6.20344 101.131 7.64665C101.131 9.02002 100.861 10.2304 100.322 11.2779C99.8057 12.3254 99.0787 13.1401 98.1405 13.7221C98.0936 13.7453 98.0585 13.7803 98.035 13.8268C98.0116 13.8501 98.0116 13.885 98.035 13.9316L101.272 24.2318L101.307 24.3715C101.307 24.6043 101.178 24.7207 100.92 24.7207H96.6982ZM92.1247 4.50419C92.0075 4.50419 91.9488 4.56238 91.9488 4.67877V10.6494C91.9488 10.7658 92.0075 10.824 92.1247 10.824H93.7078C94.4349 10.824 95.0212 10.5447 95.4669 9.98603C95.9359 9.4041 96.1705 8.63594 96.1705 7.68156C96.1705 6.70391 95.9359 5.93575 95.4669 5.37709C95.0212 4.79516 94.4349 4.50419 93.7078 4.50419H92.1247Z" fill="#F566A9"/>
<path d="M116.459 4.0852C116.459 4.20158 116.412 4.30633 116.318 4.39944C116.248 4.46927 116.154 4.50419 116.037 4.50419H108.684C108.567 4.50419 108.508 4.56238 108.508 4.67877V10.1955C108.508 10.3119 108.567 10.3701 108.684 10.3701H112.906C113.023 10.3701 113.117 10.4167 113.187 10.5098C113.281 10.5796 113.328 10.6727 113.328 10.7891V14.176C113.328 14.2924 113.281 14.3971 113.187 14.4902C113.117 14.5601 113.023 14.595 112.906 14.595H108.684C108.567 14.595 108.508 14.6532 108.508 14.7696V20.3212C108.508 20.4376 108.567 20.4958 108.684 20.4958H116.037C116.154 20.4958 116.248 20.5424 116.318 20.6355C116.412 20.7053 116.459 20.7984 116.459 20.9148V24.3017C116.459 24.4181 116.412 24.5228 116.318 24.6159C116.248 24.6858 116.154 24.7207 116.037 24.7207H103.97C103.853 24.7207 103.747 24.6858 103.653 24.6159C103.583 24.5228 103.548 24.4181 103.548 24.3017V0.698323C103.548 0.581936 103.583 0.488826 103.653 0.418993C103.747 0.325883 103.853 0.279328 103.97 0.279328H116.037C116.154 0.279328 116.248 0.325883 116.318 0.418993C116.412 0.488826 116.459 0.581936 116.459 0.698323V4.0852Z" fill="#F566A9"/>
<path d="M125.306 25C123.946 25 122.75 24.7323 121.718 24.1969C120.686 23.6615 119.888 22.9167 119.325 21.9623C118.762 20.9846 118.481 19.8673 118.481 18.6103V17.5978C118.481 17.4814 118.516 17.3883 118.587 17.3184C118.68 17.2253 118.786 17.1788 118.903 17.1788H122.949C123.066 17.1788 123.16 17.2253 123.23 17.3184C123.324 17.3883 123.371 17.4814 123.371 17.5978V18.3659C123.371 19.0875 123.559 19.6695 123.934 20.1117C124.309 20.554 124.778 20.7751 125.341 20.7751C125.904 20.7751 126.373 20.5656 126.748 20.1466C127.124 19.7277 127.311 19.1806 127.311 18.5056C127.311 17.8073 127.077 17.2137 126.608 16.7249C126.139 16.2128 125.224 15.4679 123.864 14.4902C122.691 13.6522 121.741 12.9074 121.014 12.2556C120.287 11.6038 119.665 10.8007 119.149 9.84637C118.633 8.89199 118.375 7.78631 118.375 6.52933C118.375 4.55074 118.997 2.96788 120.24 1.78073C121.483 0.593575 123.125 0 125.165 0C127.229 0 128.883 0.616853 130.126 1.85056C131.392 3.08426 132.025 4.70205 132.025 6.70391V7.5419C132.025 7.65829 131.978 7.76303 131.885 7.85614C131.814 7.92598 131.72 7.96089 131.603 7.96089H127.557C127.44 7.96089 127.335 7.92598 127.241 7.85614C127.17 7.76303 127.135 7.65829 127.135 7.5419V6.59916C127.135 5.87756 126.948 5.30726 126.572 4.88827C126.221 4.446 125.752 4.22486 125.165 4.22486C124.602 4.22486 124.145 4.43436 123.793 4.85335C123.441 5.24907 123.265 5.80773 123.265 6.52933C123.265 7.22765 123.488 7.84451 123.934 8.37989C124.38 8.91527 125.259 9.66015 126.572 10.6145C128.027 11.6853 129.117 12.5582 129.844 13.2332C130.595 13.885 131.169 14.6182 131.568 15.433C131.99 16.2244 132.201 17.1788 132.201 18.2961C132.201 20.3445 131.568 21.9739 130.302 23.1844C129.035 24.3948 127.37 25 125.306 25Z" fill="#F566A9"/>
<path d="M147.413 4.0852C147.413 4.20158 147.366 4.30633 147.273 4.39944C147.202 4.46927 147.108 4.50419 146.991 4.50419H139.639C139.521 4.50419 139.463 4.56238 139.463 4.67877V10.1955C139.463 10.3119 139.521 10.3701 139.639 10.3701H143.86C143.977 10.3701 144.071 10.4167 144.142 10.5098C144.235 10.5796 144.282 10.6727 144.282 10.7891V14.176C144.282 14.2924 144.235 14.3971 144.142 14.4902C144.071 14.5601 143.977 14.595 143.86 14.595H139.639C139.521 14.595 139.463 14.6532 139.463 14.7696V20.3212C139.463 20.4376 139.521 20.4958 139.639 20.4958H146.991C147.108 20.4958 147.202 20.5424 147.273 20.6355C147.366 20.7053 147.413 20.7984 147.413 20.9148V24.3017C147.413 24.4181 147.366 24.5228 147.273 24.6159C147.202 24.6858 147.108 24.7207 146.991 24.7207H134.924C134.807 24.7207 134.702 24.6858 134.608 24.6159C134.537 24.5228 134.502 24.4181 134.502 24.3017V0.698323C134.502 0.581936 134.537 0.488826 134.608 0.418993C134.702 0.325883 134.807 0.279328 134.924 0.279328H146.991C147.108 0.279328 147.202 0.325883 147.273 0.418993C147.366 0.488826 147.413 0.581936 147.413 0.698323V4.0852Z" fill="#F566A9"/>
<path d="M163.578 0.279328C163.695 0.279328 163.789 0.325883 163.859 0.418993C163.953 0.488826 164 0.581936 164 0.698323V4.0852C164 4.20158 163.953 4.30633 163.859 4.39944C163.789 4.46927 163.695 4.50419 163.578 4.50419H159.18C159.063 4.50419 159.004 4.56238 159.004 4.67877V24.3017C159.004 24.4181 158.958 24.5228 158.864 24.6159C158.793 24.6858 158.7 24.7207 158.582 24.7207H154.466C154.349 24.7207 154.243 24.6858 154.15 24.6159C154.079 24.5228 154.044 24.4181 154.044 24.3017V4.67877C154.044 4.56238 153.985 4.50419 153.868 4.50419H149.646C149.529 4.50419 149.424 4.46927 149.33 4.39944C149.26 4.30633 149.224 4.20158 149.224 4.0852V0.698323C149.224 0.581936 149.26 0.488826 149.33 0.418993C149.424 0.325883 149.529 0.279328 149.646 0.279328H163.578Z" fill="#F566A9"/>
</svg>
