<svg width="25" height="24" viewBox="0 0 25 24" fill="none" xmlns="http://www.w3.org/2000/svg">
<path fill-rule="evenodd" clip-rule="evenodd" d="M21.6274 1.06033C21.0551 0.834081 20.449 0.874231 19.8693 0.9756C19.2947 1.07609 18.5808 1.27081 17.7198 1.50565L17.5258 1.55853C15.5942 2.08515 14.4421 2.39926 13.4339 2.98077C12.5823 3.47203 11.8169 4.09953 11.1681 4.83831C10.8643 5.18427 10.5971 5.56052 10.3297 5.99983L9.53489 5.99981C8.6646 5.99956 8.064 5.99939 7.49965 6.13156C6.56792 6.34977 5.71839 6.83077 5.0519 7.51745C4.64821 7.93338 4.33935 8.44847 3.89181 9.19486L3.81588 9.32145C3.65331 9.59237 3.5058 9.83818 3.39967 10.0462C3.29298 10.2553 3.16856 10.5356 3.146 10.8619C3.09068 11.6619 3.51855 12.4176 4.23301 12.7817C4.5244 12.9302 4.82871 12.9677 5.06293 12.9838C5.29591 12.9999 5.58256 12.9998 5.8985 12.9998L6.77822 12.9998C6.76353 13.0362 6.74967 13.0722 6.73676 13.1075C6.63255 13.393 6.55439 13.7331 6.61763 14.1227C6.68087 14.5124 6.86254 14.8103 7.05169 15.0482C7.21728 15.2565 7.43733 15.4764 7.65712 15.6961L8.67875 16.7178C8.89845 16.9375 9.11841 17.1576 9.32668 17.3232C9.56459 17.5123 9.86245 17.694 10.2521 17.7572C10.6418 17.8205 10.9818 17.7423 11.2674 17.6381C11.3027 17.6252 11.3386 17.6113 11.375 17.5967L11.375 18.4763C11.375 18.7923 11.375 19.079 11.391 19.3119C11.4071 19.5462 11.4446 19.8505 11.5932 20.1419C11.9573 20.8563 12.713 21.2842 13.513 21.2289C13.8393 21.2063 14.1195 21.0819 14.3287 20.9752C14.5367 20.8691 14.7825 20.7216 15.0534 20.559L15.18 20.4831C15.9264 20.0355 16.4415 19.7267 16.8574 19.323C17.5441 18.6565 18.0251 17.8069 18.2433 16.8752C18.3755 16.3109 18.3753 15.7103 18.3751 14.84L18.375 14.0451C18.8144 13.7777 19.1906 13.5106 19.5366 13.2068C20.2753 12.558 20.9028 11.7926 21.3941 10.9409C21.9756 9.93279 22.2897 8.78065 22.8163 6.84903L22.8692 6.65508C23.1041 5.79408 23.2988 5.08018 23.3993 4.50554C23.5006 3.92589 23.5408 3.3198 23.3145 2.74743C23.0096 1.97601 22.3989 1.36527 21.6274 1.06033ZM18.1979 3.4483C19.1193 3.19701 19.7424 3.02815 20.2139 2.9457C20.691 2.86227 20.8454 2.90179 20.8922 2.92029C21.1494 3.02193 21.3529 3.22551 21.4546 3.48266C21.4731 3.52944 21.5126 3.68391 21.4292 4.16101C21.3467 4.63244 21.1779 5.25559 20.9266 6.17696C20.348 8.2983 20.0984 9.18442 19.6616 9.94162C19.2796 10.604 18.7915 11.1994 18.2169 11.7039C17.5601 12.2807 16.7401 12.6993 14.7734 13.6826L11.2172 15.4607C10.8854 15.6266 10.7111 15.7121 10.5816 15.7593L10.576 15.7614L10.5713 15.7577C10.4635 15.6719 10.3251 15.5357 10.0628 15.2734L9.10146 14.312C8.8392 14.0498 8.70295 13.9114 8.6172 13.8035L8.6135 13.7989L8.61553 13.7933C8.66277 13.6638 8.74827 13.4894 8.91414 13.1577L10.6923 9.60146C11.6756 7.63478 12.0942 6.81481 12.6709 6.15798C13.1755 5.58336 13.7708 5.09531 14.4333 4.71322C15.1904 4.27646 16.0766 4.02684 18.1979 3.4483ZM7.75701 10.9998L8.97101 8.57182C9.07057 8.37263 9.16568 8.18239 9.25713 8.00036C8.52226 8.00287 8.22312 8.01624 7.95571 8.07887C7.39668 8.20979 6.88695 8.49839 6.48706 8.9104C6.26473 9.13947 6.07741 9.43954 5.54701 10.3235C5.36306 10.6301 5.25217 10.816 5.18122 10.9551C5.17551 10.9663 5.1704 10.9765 5.16585 10.9859C5.17621 10.9868 5.18762 10.9877 5.20016 10.9886C5.35592 10.9993 5.57238 10.9998 5.92992 10.9998H7.75701ZM13.375 18.445V16.6179L15.803 15.4039C16.0022 15.3043 16.1925 15.2092 16.3745 15.1177C16.372 15.8526 16.3586 16.1518 16.296 16.4192C16.1651 16.9782 15.8765 17.4879 15.4645 17.8878C15.2354 18.1101 14.9353 18.2975 14.0513 18.8279C13.7447 19.0118 13.5588 19.1227 13.4198 19.1937C13.4086 19.1994 13.3983 19.2045 13.389 19.209C13.3881 19.1987 13.3872 19.1873 13.3863 19.1747C13.3756 19.019 13.375 18.8025 13.375 18.445Z" fill="#A1A1AA"/>
<path d="M4.66794 15.2927L3.97349 15.9872C3.84137 16.1193 3.75011 16.2105 3.66481 16.3049C2.89313 17.1592 2.43983 18.2535 2.38147 19.4032C2.37502 19.5303 2.37503 19.6593 2.37504 19.8462L2.37502 19.8969C2.37491 19.9879 2.37478 20.0988 2.38532 20.2024C2.48145 21.1467 3.22815 21.8934 4.17252 21.9895C4.27606 22.0001 4.38696 22 4.47795 21.9999L4.5287 21.9998C4.71547 21.9998 4.84463 21.9998 4.97168 21.9934C6.12137 21.935 7.21571 21.4817 8.06993 20.7101C8.16435 20.6248 8.2556 20.5335 8.38771 20.4014L9.08215 19.7069L7.66794 18.2927L6.99082 18.9698C6.83498 19.1257 6.78132 19.1789 6.72924 19.226C6.2167 19.689 5.5601 19.961 4.87028 19.996C4.80018 19.9995 4.72459 19.9998 4.5042 19.9998C4.44073 19.9998 4.40604 19.9998 4.38065 19.9993L4.37563 19.9992L4.37553 19.9942C4.37508 19.9688 4.37504 19.9341 4.37504 19.8707C4.37504 19.6503 4.37534 19.5747 4.3789 19.5046C4.41392 18.8148 4.68589 18.1582 5.14891 17.6456C5.19596 17.5935 5.2492 17.5399 5.40504 17.384L6.08215 16.7069L4.66794 15.2927Z" fill="#A1A1AA"/>
</svg>
