<svg width="24" height="24" viewBox="0 0 24 24" fill="none" xmlns="http://www.w3.org/2000/svg">
<path d="M9 4H15V2H9V4Z" fill="#F566A9"/>
<path fill-rule="evenodd" clip-rule="evenodd" d="M21 7H18.9334L18.1341 18.5903C18.0225 20.2083 16.8418 21.5514 15.2514 21.8695C13.1051 22.2988 10.8949 22.2988 8.74858 21.8695C7.15822 21.5514 5.97751 20.2083 5.86592 18.5903L5.06659 7H3V5H21V7ZM7.07134 7H16.9287L16.1388 18.4527C16.0893 19.1709 15.5652 19.7672 14.8592 19.9084C12.9718 20.2858 11.0282 20.2858 9.14081 19.9084C8.43484 19.7672 7.91072 19.1709 7.86118 18.4527L7.07134 7Z" fill="#F566A9"/>
</svg>
