<svg width="246" height="96" viewBox="0 0 246 96" fill="none" xmlns="http://www.w3.org/2000/svg">
<g clip-path="url(#clip0_3626_1453)">
<path d="M19.2176 21.8574L18.5054 7.47959L77.0796 0L90.0046 6.02286L77.733 14.4235L19.2176 21.8574Z" fill="#FFC220"/>
<path d="M41.3169 47.399L55.2352 48.8949V77.4284H41.3169V47.399Z" fill="#FFC220"/>
<path d="M73.9496 50.8481H73.7928V40.2003H62.0767V77.435H73.7928V61.313C73.7928 60.7643 74.7207 58.8046 76.5765 55.4339C78.4322 52.0631 80.7062 50.3909 83.418 50.3909C85.1605 50.3909 87.4475 51.2945 90.2791 53.1018V40.6903C88.9188 39.9166 87.3929 39.4798 85.8292 39.4164C81.3204 39.4164 77.3606 43.227 73.9496 50.8481Z" fill="#0071CE"/>
<path d="M94.7486 43.0484V77.4284H106.471V43.0027C104.152 46.4584 101.087 50.7371 100.59 51.4948C100.015 50.5738 96.9834 46.38 94.7486 43.0484Z" fill="#0071CE"/>
<path d="M135.053 39.4099C131.127 39.3912 127.334 40.8245 124.402 43.4338V40.2003H112.685V96.0261H124.402V75.5732C127.311 77.2677 130.621 78.154 133.988 78.1404C139.507 78.1404 143.946 76.3375 147.305 72.7316C150.663 69.1257 152.338 64.3353 152.33 58.3604C152.33 53.043 150.661 48.5552 147.324 44.8971C145.8 43.1464 143.913 41.7486 141.794 40.801C139.674 39.8534 137.374 39.3787 135.053 39.4099ZM137.954 67.2313C137.142 68.2311 136.108 69.028 134.934 69.5586C133.76 70.0893 132.478 70.3392 131.191 70.2885C128.721 70.2384 126.337 69.3802 124.402 67.8454V50.7305C126.898 48.7316 129.318 47.7322 131.661 47.7322C132.901 47.6705 134.137 47.9071 135.266 48.422C136.395 48.9369 137.384 49.7151 138.15 50.6913C139.688 52.6641 140.457 55.4251 140.457 58.9744C140.478 62.4453 139.644 65.1976 137.954 67.2313Z" fill="#0071CE"/>
<path d="M41.3169 29.9967L10.3113 27.031L0 31.9172L9.80811 39.4948L55.2352 43.9499V43.7866V31.3293V21.7267L41.3169 23.3206V29.9967Z" fill="#0071CE"/>
<path d="M219.098 67.3359V54.0816H244.223V43.9891H219.098V32.4333H245.445V22.3342H215.236H205.369H203.304L185.59 42.7675L167.868 22.3342H155.95V77.4284H169.672V43.0419L184.557 60.3135H186.622L201.507 43.0419V77.4284H205.369H215.236H246V67.3359H219.098Z" fill="#0071CE"/>
<path d="M108.549 31.5123C108.341 30.3002 107.859 29.1517 107.14 28.1545C106.42 27.1572 105.482 26.3377 104.396 25.7584C103.311 25.1792 102.108 24.8556 100.879 24.8124C99.6496 24.7691 98.4266 25.0074 97.3035 25.509C93.0104 27.3903 91.1939 33.6679 93.5463 37.7115C93.9579 38.4235 94.5722 39.3773 95.2713 40.4159C97.3166 43.4469 100.068 47.2488 100.597 48.0719C101.028 47.4186 103.812 43.4992 105.922 40.3767C106.615 39.3446 107.229 38.417 107.68 37.6658C108.641 36.0653 108.869 33.3152 108.549 31.5123ZM100.63 38.0969C99.5929 38.1099 98.5759 37.8144 97.7077 37.2481C96.8395 36.6818 96.1593 35.8702 95.7536 34.9165C95.3479 33.9628 95.235 32.9101 95.4293 31.8921C95.6235 30.8741 96.1162 29.9368 96.8446 29.1994C97.573 28.462 98.5043 27.9578 99.5201 27.7508C100.536 27.5438 101.59 27.6434 102.549 28.037C103.508 28.4305 104.329 29.1002 104.906 29.961C105.483 30.8217 105.792 31.8346 105.792 32.871C105.792 34.2458 105.25 35.5652 104.284 36.5434C103.318 37.5216 102.005 38.0797 100.63 38.0969Z" fill="#FFC220"/>
</g>
<defs>
<clipPath id="clip0_3626_1453">
<rect width="246" height="96" fill="white"/>
</clipPath>
</defs>
</svg>
