<svg width="32" height="32" viewBox="0 0 32 32" fill="none" xmlns="http://www.w3.org/2000/svg">
<path d="M0 16C0 7.16344 7.16344 0 16 0C24.8366 0 32 7.16344 32 16C32 24.8366 24.8366 32 16 32C7.16344 32 0 24.8366 0 16Z" fill="#F566A9"/>
<path d="M13.3549 9.78289L11.9431 12.2534L13.3902 13.0803L14.8019 10.6098C14.8521 10.522 14.9359 10.4585 15.0339 10.434C15.078 10.423 15.1223 10.4127 15.1667 10.4033L15.1667 18.5002H16.8333V10.4033C16.8777 10.4127 16.922 10.423 16.9661 10.434C17.0641 10.4585 17.1479 10.522 17.1981 10.6098L18.6098 13.0803L20.0569 12.2534L18.6451 9.78289C18.3696 9.30066 17.9091 8.95183 17.3703 8.81713C16.4706 8.59221 15.5294 8.59221 14.6297 8.81713C14.0909 8.95183 13.6304 9.30066 13.3549 9.78289Z" fill="white"/>
<path d="M21.8333 19.4811V16.0002H23.5V19.4811C23.5 21.246 22.2988 22.7845 20.5866 23.2125C17.5752 23.9654 14.4248 23.9654 11.4134 23.2125C9.70118 22.7845 8.5 21.246 8.5 19.4811V16.0002H10.1667L10.1667 19.4811C10.1667 20.4813 10.8474 21.3531 11.8176 21.5956C14.5636 22.2821 17.4364 22.2821 20.1824 21.5956C21.1526 21.3531 21.8333 20.4813 21.8333 19.4811Z" fill="white"/>
</svg>
