<svg width="33" height="33" viewBox="0 0 33 33" fill="none" xmlns="http://www.w3.org/2000/svg">
<path d="M17.5233 27.6285V21.4889H21.6164L16.5 15.3492L11.3836 21.4889H15.4767V27.6285H10.3603V27.5774C10.1884 27.5876 10.0247 27.6285 9.84866 27.6285C7.81324 27.6285 5.86117 26.82 4.42191 25.3807C2.98264 23.9414 2.17407 21.9894 2.17407 19.9539C2.17407 16.0164 5.15181 12.8074 8.97274 12.3674C9.30775 10.6161 10.2425 9.03633 11.6163 7.89973C12.9901 6.76314 14.717 6.14077 16.5 6.13968C18.2832 6.14066 20.0104 6.76295 21.3845 7.89952C22.7587 9.03609 23.6938 10.6159 24.0293 12.3674C27.8502 12.8074 30.8238 16.0164 30.8238 19.9539C30.8238 21.9894 30.0153 23.9414 28.576 25.3807C27.1367 26.82 25.1847 27.6285 23.1492 27.6285C22.9773 27.6285 22.8116 27.5876 22.6376 27.5774V27.6285H17.5233Z" fill="#051F42"/>
</svg>
