<svg width="24" height="24" viewBox="0 0 24 24" fill="none" xmlns="http://www.w3.org/2000/svg">
<path fill-rule="evenodd" clip-rule="evenodd" d="M12 2C8.13401 2 5 5.13401 5 9C5 11.4059 6.21376 13.5283 8.06235 14.7883C6.91473 15.0164 5.78216 15.3451 4.67792 15.7745C3.06344 16.4024 2 17.957 2 19.6892V21H4V19.6892C4 18.7818 4.55708 17.9674 5.40281 17.6385C9.64615 15.9883 14.3539 15.9883 18.5972 17.6385C19.4429 17.9674 20 18.7818 20 19.6892V21H22V19.6892C22 17.957 20.9366 16.4024 19.3221 15.7745C18.2178 15.3451 17.0853 15.0164 15.9377 14.7883C17.7862 13.5283 19 11.4059 19 9C19 5.13401 15.866 2 12 2ZM7 9C7 6.23858 9.23858 4 12 4C14.7614 4 17 6.23858 17 9C17 11.7614 14.7614 14 12 14C9.23858 14 7 11.7614 7 9Z" fill="#777EFF"/>
</svg>
