<svg width="19" height="19" viewBox="0 0 19 19" fill="none" xmlns="http://www.w3.org/2000/svg">
<path d="M2.86757 14.3225L11.9999 5.19011L13.4141 6.60432L3.41414 16.6043L1.99998 15.1902L0 17.1901L1.41421 18.6044L4.2818 15.7368C4.46684 15.78 4.64418 15.7922 4.80189 15.7942C5.04545 15.7973 5.33502 15.775 5.63753 15.7517L5.71705 15.7456C7.70348 15.5928 9.25331 15.4736 10.4993 15.2778C11.7674 15.0786 12.7969 14.7901 13.7257 14.2587C15.118 13.4622 16.2721 12.3081 17.0686 10.9158C17.5999 9.98699 17.8885 8.95757 18.0877 7.68946C18.2834 6.44345 18.4027 4.89362 18.5555 2.90719L18.5616 2.82767C18.5849 2.52516 18.6072 2.23559 18.6041 1.99203C18.6007 1.72836 18.569 1.40983 18.4109 1.09221C18.217 0.702892 17.9015 0.387387 17.5121 0.193504C17.1945 0.0353258 16.876 0.00367233 16.6123 0.000293278C16.3688 -0.00282816 16.0792 0.0194799 15.7767 0.0427844L15.6972 0.0489042C13.7107 0.201702 12.1609 0.320915 10.9149 0.516662C9.64678 0.71588 8.61736 1.00441 7.68853 1.53577C6.29625 2.33227 5.14213 3.48639 4.34563 4.87867C3.81427 5.8075 3.52574 6.83692 3.32652 8.10503C3.13077 9.35105 3.01156 10.9009 2.85876 12.8873L2.85264 12.9668C2.82934 13.2693 2.80703 13.5589 2.81015 13.8025C2.81217 13.9602 2.82431 14.1375 2.86757 14.3225Z" fill="#65A30D"/>
</svg>
