<svg width="18" height="14" viewBox="0 0 18 14" fill="none" xmlns="http://www.w3.org/2000/svg">
<path fill-rule="evenodd" clip-rule="evenodd" d="M7.28834 0.333313C6.15612 0.333301 5.24307 0.333291 4.5105 0.407814C3.75432 0.484738 3.09854 0.6479 2.51842 1.03552C2.06346 1.33952 1.67283 1.73015 1.36884 2.1851C0.981213 2.76522 0.818051 3.42101 0.741127 4.17718C0.666604 4.90976 0.666614 5.82279 0.666626 6.95501V7.04493C0.666614 8.17715 0.666604 9.0902 0.741127 9.82278C0.818051 10.579 0.981213 11.2347 1.36884 11.8149C1.67283 12.2698 2.06346 12.6604 2.51842 12.9644C3.09854 13.3521 3.75432 13.5152 4.5105 13.5921C5.24307 13.6667 6.15611 13.6667 7.28833 13.6666H10.7116C11.8438 13.6667 12.7568 13.6667 13.4894 13.5921C14.2456 13.5152 14.9014 13.3521 15.4815 12.9644C15.9365 12.6604 16.3271 12.2698 16.6311 11.8149C17.0187 11.2347 17.1819 10.579 17.2588 9.82278C17.3333 9.09021 17.3333 8.17719 17.3333 7.04499V6.95502C17.3333 5.82281 17.3333 4.90975 17.2588 4.17718C17.1819 3.42101 17.0187 2.76522 16.6311 2.1851C16.3271 1.73015 15.9365 1.33952 15.4815 1.03552C14.9014 0.6479 14.2456 0.484738 13.4894 0.407814C12.7568 0.333291 11.8438 0.333301 10.7116 0.333313H7.28834ZM3.64637 2.30734C3.88551 2.19458 4.20223 2.11444 4.67917 2.06592C5.31749 2.00099 6.14557 1.99998 7.33329 1.99998H10.6666C11.8544 1.99998 12.6824 2.00099 13.3207 2.06592C13.7977 2.11444 14.1144 2.19458 14.3536 2.30734L12.2242 4.96898C11.9869 5.26571 11.6586 5.47633 11.29 5.5685C9.78643 5.94438 8.21349 5.94438 6.70995 5.5685C6.34129 5.47633 6.01307 5.26571 5.77568 4.96898L3.64637 2.30734ZM2.53662 3.58812C2.4769 3.7869 2.43121 4.0316 2.39924 4.34586C2.3343 4.98418 2.33329 5.81225 2.33329 6.99998C2.33329 8.18771 2.3343 9.01578 2.39924 9.6541C2.46275 10.2785 2.58048 10.6283 2.75462 10.8889C2.93702 11.1619 3.17139 11.3963 3.44437 11.5787C3.70499 11.7528 4.05478 11.8705 4.67917 11.934C5.31749 11.999 6.14557 12 7.33329 12H10.6666C11.8544 12 12.6824 11.999 13.3207 11.934C13.9451 11.8705 14.2949 11.7528 14.5556 11.5787C14.8285 11.3963 15.0629 11.1619 15.2453 10.8889C15.4194 10.6283 15.5372 10.2785 15.6007 9.6541C15.6656 9.01578 15.6666 8.18771 15.6666 6.99998C15.6666 5.81225 15.6656 4.98418 15.6007 4.34586C15.5687 4.0316 15.523 3.7869 15.4633 3.58812L13.5257 6.01014C13.0603 6.59184 12.4169 7.00473 11.6942 7.1854C9.92526 7.62764 8.07466 7.62764 6.30572 7.1854C5.58302 7.00473 4.93959 6.59184 4.47423 6.01014L2.53662 3.58812Z" fill="#52525B"/>
</svg>
