<svg width="19" height="19" viewBox="0 0 19 19" fill="none" xmlns="http://www.w3.org/2000/svg">
<path fill-rule="evenodd" clip-rule="evenodd" d="M3.95116 0.744353C7.4248 -0.248118 11.107 -0.248118 14.5806 0.744353C16.1317 1.18753 17.3442 2.40002 17.7874 3.95116C18.7799 7.4248 18.7799 11.107 17.7874 14.5806C17.3442 16.1317 16.1317 17.3442 14.5806 17.7874C11.107 18.7799 7.4248 18.7799 3.95116 17.7874C2.40002 17.3442 1.18753 16.1317 0.744353 14.5806C-0.248118 11.107 -0.248118 7.4248 0.744353 3.95116C1.18753 2.40002 2.40002 1.18753 3.95116 0.744353ZM8.26587 3.26587L8.26587 5.3317C8.26582 6.21819 8.26577 6.982 8.34801 7.59366C8.43614 8.24918 8.63489 8.87753 9.14455 9.38719C9.65421 9.89685 10.2826 10.0956 10.9381 10.1837C11.5497 10.266 12.3135 10.2659 13.2 10.2659L15.2659 10.2659V8.26587H13.2659C12.2948 8.26587 11.6671 8.26375 11.2046 8.20156C10.7708 8.14325 10.6349 8.0491 10.5588 7.97298C10.4826 7.89685 10.3885 7.7609 10.3302 7.32717C10.268 6.86466 10.2659 6.23695 10.2659 5.26587V3.26587H8.26587Z" fill="white"/>
</svg>
