<svg width="16" height="16" viewBox="0 0 16 16" fill="none" xmlns="http://www.w3.org/2000/svg">
<path d="M8.32827 15.4326L13.3134 13.2962C14.0596 12.9763 14.6483 12.3731 14.9498 11.6193C15.8792 9.29593 15.8792 6.70408 14.9498 4.3807C14.6483 3.62686 14.0596 3.02368 13.3134 2.70385L8.32827 0.567383L7.67173 2.09929L12.6568 4.23576C12.9968 4.38146 13.265 4.65626 13.4023 4.99968C13.6824 5.69974 13.8606 6.42919 13.9371 7.16667H0.5V8.83334H13.9371C13.8606 9.57082 13.6824 10.3003 13.4023 11.0003C13.265 11.3438 12.9968 11.6185 12.6568 11.7642L7.67173 13.9007L8.32827 15.4326Z" fill="white"/>
</svg>
