<svg width="22" height="17" viewBox="0 0 22 17" fill="none" xmlns="http://www.w3.org/2000/svg">
<path d="M9.99999 12.1808H3.99999V10.1808H9.99999V12.1808Z" fill="#777EFF"/>
<path d="M11 12.1808H13V10.1808H11V12.1808Z" fill="#777EFF"/>
<path fill-rule="evenodd" clip-rule="evenodd" d="M17.4485 0.320661C13.1601 -0.106887 8.83986 -0.106887 4.5515 0.320661L4.49154 0.326665C1.94446 0.587026 0.00562435 2.72942 0 5.28976V11.0718C0.00562435 13.6322 1.94446 15.7746 4.49154 16.0349L4.5515 16.0409C8.83986 16.4685 13.1601 16.4685 17.4485 16.0409L17.5084 16.0349C20.0555 15.7746 21.9944 13.6322 22 11.0718V5.28976C21.9944 2.72942 20.0555 0.587026 17.5084 0.326665L17.4485 0.320661ZM4.74991 2.31079C8.90633 1.8964 13.0936 1.8964 17.2501 2.31079L17.3051 2.3163C18.443 2.43262 19.3786 3.17499 19.7836 4.1808H2.21633C2.62141 3.17499 3.557 2.43262 4.69492 2.3163L4.74991 2.31079ZM1.99999 6.1808L2 11.0674C2.00337 12.6036 3.16667 13.8891 4.69492 14.0453L4.74991 14.0508C8.90633 14.4652 13.0936 14.4652 17.2501 14.0508L17.3051 14.0453C18.8333 13.8891 19.9966 12.6036 20 11.0674L20 6.1808H1.99999Z" fill="#777EFF"/>
</svg>
