<svg width="20" height="20" viewBox="0 0 20 20" fill="none" xmlns="http://www.w3.org/2000/svg">
<path d="M4 0C2.47487 0.880537 1.2829 2.23972 0.608966 3.86674C-0.0649673 5.49376 -0.183203 7.29769 0.272596 8.99876L2.20445 8.48112C1.8626 7.20532 1.95127 5.85237 2.45672 4.6321C2.96218 3.41184 3.85615 2.39245 5 1.73205L4 0Z" fill="#777EFF"/>
<path d="M19.391 3.86674C18.7171 2.23972 17.5251 0.880537 16 0L15 1.73205C16.1439 2.39245 17.0378 3.41184 17.5433 4.6321C18.0487 5.85237 18.1374 7.20532 17.7956 8.48112L19.7274 8.99876C20.1832 7.29769 20.065 5.49376 19.391 3.86674Z" fill="#777EFF"/>
<path fill-rule="evenodd" clip-rule="evenodd" d="M6.12701 16.9282C6.30416 17.6142 6.66203 18.2471 7.17158 18.7566C7.92172 19.5068 8.93914 19.9282 10 19.9282C11.0609 19.9282 12.0783 19.5068 12.8284 18.7566C13.338 18.2471 13.6958 17.6142 13.873 16.9282L14.8454 16.9282C15.552 16.9282 16.1639 16.9283 16.6336 16.8773C17.0781 16.829 17.7033 16.7124 18.1236 16.2069C18.3821 15.896 18.5403 15.514 18.5774 15.1114C18.6378 14.4546 18.2738 13.9273 17.9927 13.5785C17.694 13.2079 17.2573 12.7712 16.7515 12.2655L16.7113 12.2253C16.2608 11.7748 16.1786 11.68 16.1267 11.587C16.0889 11.5193 16.0592 11.4474 16.038 11.3728C16.0088 11.2701 16 11.1471 16 10.5164V7.50888C16 5.53165 14.6044 3.82928 12.6656 3.44151C12.1144 3.33128 11.5582 3.25558 11 3.2144V0.928202H9V3.2144C8.44183 3.25558 7.88558 3.33128 7.33445 3.44151C5.39561 3.82928 4 5.53165 4 7.50888V10.5164C4 11.1471 3.99117 11.2701 3.96201 11.3728C3.94085 11.4474 3.91107 11.5193 3.87329 11.587C3.82137 11.68 3.7392 11.7748 3.28869 12.2253L3.24852 12.2655C2.74276 12.7712 2.306 13.2079 2.00729 13.5785C1.7262 13.9273 1.36221 14.4546 1.42262 15.1114C1.45966 15.514 1.61788 15.896 1.87642 16.2069C2.29669 16.7124 2.92186 16.829 3.36639 16.8773C3.83606 16.9283 4.44792 16.9282 5.15456 16.9282L6.12701 16.9282ZM12.2733 5.40267C10.7726 5.10253 9.22737 5.10253 7.72668 5.40267C6.72269 5.60347 6 6.48501 6 7.50888L6.00007 10.6142C6.00059 11.0918 6.00105 11.5135 5.88604 11.9188C5.82253 12.1426 5.73321 12.3582 5.61987 12.5614C5.4146 12.9293 5.11403 13.2292 4.77309 13.5694L4.70291 13.6395C4.14548 14.1969 3.78733 14.5571 3.56454 14.8335C3.5506 14.8508 3.53781 14.8671 3.52608 14.8823C3.54355 14.8846 3.56225 14.8868 3.58225 14.889C3.93044 14.9268 4.43147 14.9282 5.21165 14.9282H14.7884C15.5685 14.9282 16.0696 14.9268 16.4178 14.889C16.4378 14.8868 16.4565 14.8846 16.4739 14.8823C16.4622 14.8671 16.4494 14.8508 16.4355 14.8335C16.2127 14.5571 15.8545 14.1969 15.2971 13.6395L15.2269 13.5694C14.886 13.2292 14.5854 12.9293 14.3801 12.5614C14.2668 12.3582 14.1775 12.1426 14.114 11.9188C13.999 11.5135 13.9994 11.0918 13.9999 10.6142L14 7.50888C14 6.48501 13.2773 5.60347 12.2733 5.40267ZM8.58579 17.3424C8.46111 17.2177 8.3546 17.0783 8.26795 16.9282H11.7321C11.6454 17.0783 11.5389 17.2177 11.4142 17.3424C11.0391 17.7175 10.5304 17.9282 10 17.9282C9.46957 17.9282 8.96086 17.7175 8.58579 17.3424Z" fill="#777EFF"/>
</svg>
