<svg width="18" height="18" viewBox="0 0 18 18" fill="none" xmlns="http://www.w3.org/2000/svg">
<path fill-rule="evenodd" clip-rule="evenodd" d="M4.83307 5.67581L4.83306 2.97193C4.833 2.81124 4.83294 2.6717 4.84672 2.54035C4.94642 1.58996 5.57917 0.779542 6.477 0.452316C6.6011 0.407088 6.73648 0.373304 6.89239 0.334396L6.94332 0.321674C7.17995 0.262512 7.32113 0.227216 7.46306 0.197506C8.47653 -0.014647 9.52295 -0.014647 10.5364 0.197506C10.6784 0.227216 10.8195 0.262512 11.0562 0.321676L11.1071 0.334396C11.263 0.373304 11.3984 0.407089 11.5225 0.452316C12.4203 0.779542 13.0531 1.58996 13.1528 2.54035C13.1665 2.6717 13.1665 2.81122 13.1664 2.9719L13.1664 5.67581C14.8198 5.78682 16.2568 6.88595 16.7866 8.47523C17.441 10.4386 17.441 12.5612 16.7866 14.5245C16.2275 16.2019 14.6578 17.3332 12.8898 17.3332H5.10972C3.34167 17.3332 1.77199 16.2019 1.21288 14.5245C0.558435 12.5612 0.558435 10.4386 1.21288 8.47523C1.74264 6.88595 3.17968 5.78682 4.83307 5.67581ZM7.80454 1.82881C8.5928 1.66381 9.40668 1.66381 10.1949 1.82881C10.3016 1.85114 10.4103 1.87816 10.6695 1.94296C10.8775 1.99498 10.9208 2.00694 10.9518 2.01822C11.251 2.1273 11.462 2.39744 11.4952 2.71423C11.4986 2.74699 11.4997 2.79188 11.4997 3.00635V5.66655H6.49974V3.00635C6.49974 2.79188 6.50085 2.74699 6.50429 2.71423C6.53752 2.39744 6.74844 2.1273 7.04772 2.01822C7.07866 2.00694 7.12194 1.99498 7.33001 1.94296C7.58923 1.87816 7.69787 1.85114 7.80454 1.82881ZM2.79402 9.00228C3.12627 8.00553 4.05905 7.33322 5.10972 7.33322H12.8898C13.9404 7.33322 14.8732 8.00553 15.2055 9.00228C15.7459 10.6235 15.7459 12.3763 15.2055 13.9975C14.8732 14.9942 13.9404 15.6665 12.8898 15.6665H5.10972C4.05905 15.6665 3.12627 14.9942 2.79402 13.9975C2.25361 12.3763 2.25361 10.6235 2.79402 9.00228Z" fill="#52525B"/>
</svg>
