<svg width="16" height="16" viewBox="0 0 16 16" fill="none" xmlns="http://www.w3.org/2000/svg">
<path fill-rule="evenodd" clip-rule="evenodd" d="M4.79385 1.3335C4.4782 1.33344 4.17549 1.33339 3.92895 1.3679C3.65338 1.40648 3.3354 1.50141 3.08693 1.78082C2.83846 2.06023 2.78134 2.38713 2.77522 2.66532C2.76975 2.91421 2.80517 3.21484 2.84211 3.52832L3.88265 12.3729C3.89119 12.4456 3.89863 12.509 3.90937 12.5689C4.04669 13.3349 4.61583 13.9516 5.36832 14.15C5.42715 14.1655 5.48961 14.1779 5.56139 14.1923L5.58474 14.1969C5.77722 14.2354 5.8829 14.2566 5.98851 14.2756C7.31895 14.5156 8.68158 14.5156 10.012 14.2756C10.1176 14.2566 10.2232 14.2354 10.4157 14.197L10.439 14.1923C10.5108 14.1779 10.5734 14.1655 10.6322 14.15C11.3847 13.9516 11.9538 13.3349 12.0912 12.5689C12.1019 12.509 12.1093 12.4456 12.1179 12.3728L13.1584 3.5283C13.1954 3.21483 13.2308 2.9142 13.2253 2.66532C13.2192 2.38713 13.1621 2.06023 12.9136 1.78082C12.6651 1.50141 12.3472 1.40648 12.0716 1.3679C11.825 1.33339 11.5223 1.33344 11.2067 1.3335H4.79385ZM4.10823 2.69464L4.10837 2.68914L4.11382 2.68836C4.25649 2.66838 4.46337 2.66684 4.83299 2.66684H11.1675C11.5372 2.66684 11.744 2.66838 11.8867 2.68836L11.8922 2.68914L11.8923 2.69464C11.8955 2.83867 11.8728 3.04431 11.8296 3.4114L11.6819 4.66684H4.31859L4.17089 3.4114C4.1277 3.04431 4.10506 2.83867 4.10823 2.69464ZM4.47545 6.00017L5.20503 12.2016C5.21643 12.2985 5.21909 12.3186 5.22178 12.3336C5.26755 12.5889 5.45727 12.7945 5.7081 12.8606C5.72282 12.8645 5.74267 12.8688 5.83836 12.8879C6.04058 12.9284 6.1334 12.9469 6.22519 12.9635C7.3991 13.1752 8.60143 13.1752 9.77534 12.9635C9.86714 12.9469 9.95995 12.9284 10.1622 12.8879C10.2579 12.8688 10.2777 12.8645 10.2924 12.8606C10.5433 12.7945 10.733 12.5889 10.7787 12.3336C10.7814 12.3186 10.7841 12.2985 10.7955 12.2016L11.5251 6.00017H4.47545Z" fill="#52525B"/>
</svg>
