<svg width="24" height="24" viewBox="0 0 24 24" fill="none" xmlns="http://www.w3.org/2000/svg">
<path fill-rule="evenodd" clip-rule="evenodd" d="M8.49911 5.99985H15.5026C16.0373 5.99976 16.5418 5.99967 16.9466 6.05823C17.3933 6.12285 17.9176 6.28373 18.2965 6.76903C18.6754 7.25433 18.7043 7.80204 18.6587 8.25107C18.6173 8.65798 18.4949 9.14737 18.3651 9.66601L18.3387 9.77151C18.2575 10.0969 18.1766 10.4208 18.0756 10.6859C17.9604 10.9882 17.7835 11.3166 17.4509 11.5763C17.1183 11.836 16.7568 11.9279 16.4357 11.9663C16.1539 12 15.8202 11.9999 15.4847 11.9999H8.51705C8.1816 11.9999 7.84784 12 7.56609 11.9663C7.24493 11.9279 6.88343 11.836 6.55083 11.5763C6.21823 11.3166 6.04135 10.9882 5.9262 10.6859C5.82518 10.4207 5.7443 10.0969 5.663 9.77149L5.63664 9.66604C5.50688 9.14739 5.38445 8.65799 5.34308 8.25107C5.29743 7.80204 5.32633 7.25433 5.70524 6.76903C6.08415 6.28373 6.6085 6.12285 7.0552 6.05823C7.46 5.99967 7.96448 5.99976 8.49911 5.99985ZM7.20027 8.06836C7.20022 8.06834 7.20109 8.06793 7.20303 8.06719L7.20027 8.06836ZM7.33186 8.03905L7.34154 8.03763C7.58543 8.00235 7.94134 7.99986 8.56243 7.99986H15.4393C16.0604 7.99986 16.4163 8.00235 16.6602 8.03763L16.6699 8.03906L16.6689 8.04879C16.644 8.29396 16.5601 8.63985 16.4095 9.24239C16.3126 9.62979 16.2598 9.83429 16.2066 9.9739L16.2044 9.9797L16.1982 9.98045C16.0499 9.99819 15.8386 9.99986 15.4393 9.99986H13.0009V8.99986H11.0009V9.99986H8.56243C8.16311 9.99986 7.9519 9.99819 7.80356 9.98045L7.79739 9.9797L7.79516 9.9739C7.74198 9.83429 7.68914 9.62979 7.59229 9.24239C7.44165 8.63985 7.35775 8.29396 7.33282 8.04879L7.33186 8.03905ZM16.8015 8.06836L16.7987 8.06719C16.8007 8.06793 16.8015 8.06834 16.8015 8.06836ZM16.6738 7.90725L16.6734 7.90428C16.6734 7.90424 16.6736 7.90519 16.6738 7.90725ZM7.32791 7.90725C7.32816 7.90519 7.32834 7.90424 7.32837 7.90428L7.32791 7.90725Z" fill="#A1A1AA"/>
<path fill-rule="evenodd" clip-rule="evenodd" d="M7.75344 2.42369C10.5797 2.17778 13.422 2.17778 16.2483 2.42369C16.5626 2.45104 16.8767 2.48245 17.4852 2.5433L17.5547 2.55024C17.9842 2.59314 18.2764 2.62232 18.53 2.67445C20.894 3.16039 22.5735 5.26559 22.5221 7.67846C22.5166 7.93725 22.4801 8.22862 22.4265 8.65686L21.3346 17.3922C21.077 19.4529 19.4539 21.076 17.3932 21.3336C13.8123 21.7812 10.1895 21.7812 6.60855 21.3336C4.54786 21.076 2.92472 19.4529 2.66714 17.3922L1.57523 8.657C1.52164 8.22869 1.48517 7.93727 1.47966 7.67846C1.4283 5.26559 3.10778 3.16039 5.47177 2.67445C5.72534 2.62232 6.01757 2.59314 6.44709 2.55024L6.51652 2.5433C7.12501 2.48245 7.43912 2.45104 7.75344 2.42369ZM16.075 4.41617C13.364 4.18029 10.6377 4.18029 7.92681 4.41617C7.62678 4.44227 7.32593 4.47234 6.70711 4.53422C6.19378 4.58555 6.01327 4.60495 5.87447 4.63348C4.45608 4.92505 3.44839 6.18817 3.47921 7.63589C3.48223 7.77755 3.50341 7.95786 3.5674 8.46978L4.65169 17.1441C4.79579 18.2969 5.70382 19.2049 6.85662 19.349C10.2728 19.7761 13.7289 19.7761 17.1451 19.349C18.2979 19.2049 19.206 18.2969 19.3501 17.1441L20.4344 8.46978C20.4983 7.95786 20.5195 7.77755 20.5225 7.63589C20.5534 6.18817 19.5457 4.92505 18.1273 4.63348C17.9885 4.60495 17.808 4.58555 17.2946 4.53422C16.6758 4.47234 16.375 4.44227 16.075 4.41617Z" fill="#A1A1AA"/>
</svg>
