<svg width="16" height="16" viewBox="0 0 16 16" fill="none" xmlns="http://www.w3.org/2000/svg">
<path fill-rule="evenodd" clip-rule="evenodd" d="M7.33334 13.1023V15.3332H8.66667V13.1023C9.14845 13.0739 9.62886 13.0147 10.1049 12.9247C10.1639 12.9136 10.2229 12.9018 10.3305 12.8803L10.3311 12.8801L10.3444 12.8775C10.389 12.8686 10.4281 12.8608 10.4641 12.8522C11.338 12.6437 11.9656 11.8781 11.9986 10.9804C12 10.9432 12 10.9037 12 10.858L12 1.99984H10.6667V3.7237L9.41422 4.97615C9.10196 5.28841 8.86455 5.52488 8.66667 5.70356L8.66667 0.666504H7.33334L7.33334 5.70356C7.13545 5.52488 6.89805 5.2884 6.58579 4.97615L5.33334 3.7237V1.99984H4L4 10.858C3.99999 10.9036 3.99999 10.9432 4.00136 10.9804C4.03442 11.8781 4.66202 12.6437 5.53587 12.8522C5.57203 12.8608 5.61082 12.8685 5.65558 12.8775L5.66892 12.8802C5.7769 12.9018 5.83603 12.9136 5.89506 12.9247C6.37115 13.0147 6.85156 13.0739 7.33334 13.1023ZM10.6667 5.60931V7.05703L9.41422 8.30948C9.10196 8.62174 8.86455 8.85821 8.66667 9.0369V7.30973C8.86515 7.22589 9.04786 7.10965 9.22097 6.97757C9.54808 6.72799 9.90813 6.36791 10.326 5.94999L10.6667 5.60931ZM7.33334 9.0369V7.30973C7.13486 7.22589 6.95215 7.10965 6.77903 6.97757C6.45193 6.728 6.09189 6.36792 5.67403 5.95001L5.33334 5.60931V7.05703L6.58579 8.30948C6.89805 8.62174 7.13545 8.85821 7.33334 9.0369ZM5.33334 8.94265L5.67401 9.28332C6.09188 9.70124 6.45193 10.0613 6.77903 10.3109C6.95215 10.443 7.13486 10.5592 7.33334 10.6431V11.7663C6.93454 11.7397 6.53694 11.6891 6.1427 11.6146C6.09151 11.6049 6.03967 11.5946 5.92671 11.572C5.8669 11.56 5.85429 11.5574 5.84529 11.5552C5.55401 11.4857 5.34481 11.2306 5.33379 10.9313C5.33345 10.922 5.33334 10.9092 5.33334 10.8482V8.94265ZM8.66667 10.6431C8.86515 10.5592 9.04786 10.443 9.22097 10.3109C9.54808 10.0613 9.90813 9.70124 10.326 9.28332L10.6667 8.94265V10.8482C10.6667 10.9092 10.6666 10.922 10.6662 10.9313C10.6552 11.2306 10.446 11.4857 10.1547 11.5552C10.1457 11.5574 10.1331 11.56 10.0733 11.572C9.96034 11.5946 9.9085 11.6049 9.8573 11.6146C9.46307 11.6891 9.06547 11.7397 8.66667 11.7663V10.6431Z" fill="#52525B"/>
</svg>
