<svg width="40" height="40" viewBox="0 0 40 40" fill="none" xmlns="http://www.w3.org/2000/svg">
<path d="M20 0.5C30.7696 0.5 39.5 9.23045 39.5 20C39.5 30.7696 30.7696 39.5 20 39.5C9.23045 39.5 0.5 30.7696 0.5 20C0.5 9.23045 9.23045 0.5 20 0.5Z" stroke="#F4349D" stroke-opacity="0.4"/>
<path d="M30 11V17C30 17.552 29.553 18 29 18C28.447 18 28 17.552 28 17V13.4141L22.707 18.707C22.512 18.902 22.256 19 22 19C21.744 19 21.488 18.902 21.293 18.707C20.902 18.316 20.902 17.684 21.293 17.293L26.5859 12H23C22.447 12 22 11.552 22 11C22 10.448 22.447 10 23 10H29C29.13 10 29.2601 10.0269 29.3821 10.0769C29.6271 10.1779 29.8221 10.3729 29.9231 10.6179C29.9741 10.7399 30 10.87 30 11ZM17.293 21.293L12 26.5859V23C12 22.448 11.553 22 11 22C10.447 22 10 22.448 10 23V29C10 29.13 10.0269 29.2601 10.0769 29.3821C10.1779 29.6271 10.3729 29.8211 10.6179 29.9231C10.7399 29.9741 10.87 30 11 30H17C17.553 30 18 29.552 18 29C18 28.448 17.553 28 17 28H13.4141L18.707 22.707C19.098 22.316 19.098 21.684 18.707 21.293C18.316 20.902 17.684 20.902 17.293 21.293Z" fill="#F4349D" fill-opacity="0.8"/>
</svg>
